<svg width="40" height="24" viewBox="0 0 40 24" fill="none" xmlns="http://www.w3.org/2000/svg">
<path d="M12 23.6C12.8837 23.6 13.6 22.8837 13.6 22C13.6 21.1163 12.8837 20.4 12 20.4V23.6ZM28 20.4C27.1163 20.4 26.4 21.1163 26.4 22C26.4 22.8837 27.1163 23.6 28 23.6V20.4ZM28 0.4C27.1163 0.4 26.4 1.11634 26.4 2C26.4 2.88366 27.1163 3.6 28 3.6V0.4ZM12 3.6C12.8837 3.6 13.6 2.88366 13.6 2C13.6 1.11634 12.8837 0.4 12 0.4V3.6ZM12 10.4C11.1163 10.4 10.4 11.1163 10.4 12C10.4 12.8837 11.1163 13.6 12 13.6V10.4ZM28 13.6C28.8837 13.6 29.6 12.8837 29.6 12C29.6 11.1163 28.8837 10.4 28 10.4V13.6ZM12 20.4C7.36081 20.4 3.6 16.6392 3.6 12H0.4C0.4 18.4065 5.5935 23.6 12 23.6V20.4ZM36.4 12C36.4 16.6392 32.6392 20.4 28 20.4V23.6C34.4065 23.6 39.6 18.4065 39.6 12H36.4ZM28 3.6C32.6392 3.6 36.4 7.36081 36.4 12H39.6C39.6 5.5935 34.4065 0.4 28 0.4V3.6ZM12 0.4C5.5935 0.4 0.4 5.5935 0.4 12H3.6C3.6 7.36081 7.36081 3.6 12 3.6V0.4ZM12 13.6H28V10.4H12V13.6Z" fill="#52587D"/>
</svg>
