<svg width="69" height="186" viewBox="0 0 69 186" fill="none" xmlns="http://www.w3.org/2000/svg">
<path d="M62.5199 185.5C63.0721 185.489 63.5108 185.032 63.4998 184.48L63.3202 175.482C63.3091 174.93 62.8526 174.491 62.3004 174.502C61.7482 174.513 61.3095 174.97 61.3206 175.522L61.4802 183.52L53.4818 183.68C52.9296 183.691 52.491 184.147 52.502 184.7C52.513 185.252 52.9696 185.69 53.5217 185.679L62.5199 185.5ZM50.4146 1.52521C49.8659 1.46228 49.3701 1.85607 49.3072 2.40476C49.2443 2.95345 49.6381 3.44926 50.1868 3.51218L50.4146 1.52521ZM43.358 2.95013C43.9096 2.97616 44.378 2.55005 44.404 1.99838C44.43 1.44671 44.0039 0.978386 43.4522 0.952355L43.358 2.95013ZM36.2294 0.925747C35.6776 0.950219 35.2502 1.41733 35.2747 1.96908C35.2991 2.52082 35.7662 2.94825 36.318 2.92378L36.2294 0.925747ZM29.5265 3.61958C30.0711 3.52795 30.4383 3.01215 30.3467 2.46752C30.2551 1.92289 29.7393 1.55566 29.1947 1.64729L29.5265 3.61958ZM22.3062 3.38878C21.7852 3.57199 21.5113 4.14288 21.6945 4.66389C21.8778 5.1849 22.4486 5.45874 22.9697 5.27553L22.3062 3.38878ZM16.8972 8.22286C17.3598 7.92121 17.4903 7.30163 17.1887 6.83901C16.887 6.37639 16.2674 6.2459 15.8048 6.54755L16.8972 8.22286ZM10.3406 11.3754C9.98657 11.7993 10.0432 12.4299 10.467 12.784C10.8909 13.138 11.5216 13.0814 11.8756 12.6576L10.3406 11.3754ZM8.40168 18.3707C8.61878 17.8629 8.38309 17.2752 7.87527 17.0582C7.36744 16.8411 6.77978 17.0767 6.56268 17.5846L8.40168 18.3707ZM4.55028 24.5196C4.45564 25.0637 4.82 25.5815 5.36411 25.6762C5.90823 25.7708 6.42605 25.4065 6.5207 24.8623L4.55028 24.5196ZM5.9481 31.6827C5.95088 31.1304 5.50541 30.6805 4.95314 30.6777C4.40086 30.6749 3.9509 31.1204 3.94813 31.6727L5.9481 31.6827ZM4.36388 38.8099C4.42731 39.3585 4.92349 39.7518 5.47212 39.6884C6.02075 39.625 6.41408 39.1288 6.35064 38.5802L4.36388 38.8099ZM7.47144 45.4469C7.35941 44.9061 6.83019 44.5585 6.28939 44.6705C5.74858 44.7825 5.40099 45.3117 5.51301 45.8526L7.47144 45.4469ZM7.20509 52.7688C7.35393 53.3007 7.90575 53.6112 8.43759 53.4623C8.96944 53.3135 9.27993 52.7616 9.13108 52.2298L7.20509 52.7688ZM11.1864 58.8508C11.0089 58.3278 10.441 58.0478 9.91807 58.2253C9.39509 58.4028 9.11503 58.9707 9.29255 59.4936L11.1864 58.8508ZM11.7181 66.1297C11.919 66.6442 12.4989 66.8984 13.0134 66.6975C13.5278 66.4966 13.782 65.9166 13.5811 65.4022L11.7181 66.1297ZM16.2566 71.8745C16.0361 71.3681 15.4468 71.1364 14.9405 71.3569C14.4341 71.5774 14.2024 72.1666 14.4229 72.673L16.2566 71.8745ZM17.3557 79.1062C17.593 79.6049 18.1896 79.8168 18.6883 79.5795C19.187 79.3423 19.399 78.7456 19.1617 78.2469L17.3557 79.1062ZM22.2594 84.5117C22.0074 84.0203 21.4047 83.8262 20.9133 84.0782C20.4218 84.3302 20.2277 84.9328 20.4797 85.4243L22.2594 84.5117ZM23.7888 91.6642C24.0541 92.1486 24.6618 92.3262 25.1462 92.0609C25.6306 91.7957 25.8082 91.1879 25.543 90.7035L23.7888 91.6642ZM28.9819 96.7964C28.7044 96.3189 28.0924 96.1568 27.6149 96.4343C27.1373 96.7118 26.9752 97.3238 27.2527 97.8013L28.9819 96.7964ZM30.8689 103.852C31.158 104.323 31.7738 104.47 32.2444 104.181C32.715 103.892 32.8622 103.276 32.5731 102.805L30.8689 103.852ZM36.3238 108.749C36.0234 108.285 35.4042 108.153 34.9407 108.453C34.4773 108.754 34.3451 109.373 34.6455 109.836L36.3238 108.749ZM38.5587 115.714C38.8705 116.17 39.4928 116.287 39.9487 115.975C40.4045 115.663 40.5213 115.041 40.2095 114.585L38.5587 115.714ZM44.2263 120.297C43.9025 119.849 43.2773 119.749 42.8299 120.073C42.3825 120.396 42.2822 121.022 42.606 121.469L44.2263 120.297ZM46.8029 127.094C47.1401 127.531 47.768 127.612 48.2054 127.275C48.6429 126.938 48.7242 126.31 48.3871 125.873L46.8029 127.094ZM52.737 131.311C52.3835 130.887 51.7529 130.829 51.3286 131.183C50.9043 131.536 50.8468 132.167 51.2003 132.591L52.737 131.311ZM55.9009 137.945C56.2778 138.349 56.9106 138.37 57.3142 137.993C57.7179 137.616 57.7396 136.984 57.3627 136.58L55.9009 137.945ZM62.3954 141.456C61.9724 141.101 61.3416 141.156 60.9866 141.579C60.6316 142.002 60.6867 142.633 61.1098 142.988L62.3954 141.456ZM68.4391 145.27C68.8097 144.86 68.7783 144.228 68.3688 143.857C67.9594 143.487 67.327 143.518 66.9564 143.928L68.4391 145.27ZM66.3155 138.2C66.4738 138.729 67.0311 139.03 67.5602 138.871C68.0893 138.713 68.3899 138.156 68.2316 137.627L66.3155 138.2ZM65.7951 130.944C65.5843 130.434 64.9997 130.191 64.4892 130.401C63.9787 130.612 63.7356 131.197 63.9464 131.707L65.7951 130.944ZM61.1415 125.361C61.3749 125.861 61.9699 126.078 62.4705 125.844C62.971 125.611 63.1875 125.016 62.9541 124.515L61.1415 125.361ZM59.8155 118.038C59.5682 117.544 58.9674 117.344 58.4736 117.592C57.9797 117.839 57.7798 118.44 58.0271 118.934L59.8155 118.038ZM54.8842 112.807C55.1406 113.296 55.745 113.485 56.2342 113.228C56.7233 112.972 56.912 112.367 56.6556 111.878L54.8842 112.807ZM53.1469 105.313C52.8828 104.828 52.2755 104.648 51.7905 104.913C51.3054 105.177 51.1263 105.784 51.3904 106.269L53.1469 105.313ZM48.0178 100.19C48.2897 100.671 48.8998 100.84 49.3806 100.568C49.8613 100.296 50.0305 99.6859 49.7586 99.2052L48.0178 100.19ZM46.2124 93.07C45.9314 92.5946 45.3181 92.437 44.8427 92.7181C44.3673 92.9991 44.2097 93.6124 44.4908 94.0878L46.2124 93.07ZM40.9505 88.2423C41.2419 88.7114 41.8585 88.8555 42.3276 88.5641C42.7967 88.2726 42.9408 87.6561 42.6494 87.1869L40.9505 88.2423ZM38.7971 81.167C38.4927 80.7062 37.8724 80.5793 37.4115 80.8837C36.9507 81.188 36.8238 81.8083 37.1282 82.2692L38.7971 81.167ZM33.1757 76.4953C33.4959 76.9453 34.1202 77.0505 34.5702 76.7304C35.0202 76.4102 35.1255 75.7858 34.8053 75.3358L33.1757 76.4953ZM30.6085 69.7003C30.2681 69.2654 29.6396 69.1888 29.2047 69.5293C28.7698 69.8697 28.6933 70.4982 29.0337 70.9331L30.6085 69.7003ZM24.5984 65.6115C24.9667 66.023 25.5989 66.0582 26.0105 65.6899C26.422 65.3216 26.4572 64.6894 26.0889 64.2779L24.5984 65.6115ZM21.0885 59.208C20.6783 58.8382 20.046 58.8709 19.6761 59.2811C19.3063 59.6913 19.339 60.3236 19.7492 60.6934L21.0885 59.208ZM14.4141 56.7052C14.8939 56.9787 15.5045 56.8115 15.7781 56.3317C16.0516 55.8519 15.8844 55.2412 15.4046 54.9677L14.4141 56.7052ZM8.02568 53.1819C7.48241 53.2812 7.12253 53.8021 7.22187 54.3454C7.32121 54.8887 7.84216 55.2486 8.38543 55.1492L8.02568 53.1819ZM4.24033 59.097C4.45423 58.5878 4.21486 58.0016 3.70568 57.7877C3.1965 57.5738 2.61032 57.8132 2.39642 58.3224L4.24033 59.097ZM0.876925 65.4699C0.836406 66.0207 1.25007 66.5 1.80086 66.5406C2.35166 66.5811 2.83102 66.1674 2.87154 65.6166L0.876925 65.4699ZM2.91335 72.4498C2.87402 71.8989 2.39555 71.4842 1.84467 71.5236C1.29379 71.5629 0.879095 72.0414 0.918432 72.5922L2.91335 72.4498ZM1.77075 79.6936C1.85982 80.2387 2.37388 80.6083 2.91893 80.5192C3.46399 80.4302 3.83364 79.9161 3.74456 79.371L1.77075 79.6936ZM5.09407 86.1621C4.96949 85.6241 4.43232 85.2889 3.89427 85.4135C3.35622 85.5381 3.02103 86.0752 3.14561 86.6133L5.09407 86.1621ZM4.92262 93.438C5.07543 93.9687 5.62953 94.2751 6.16026 94.1223C6.69099 93.9695 6.99735 93.4154 6.84455 92.8847L4.92262 93.438ZM8.92643 99.5335C8.74979 99.0102 8.18239 98.7292 7.65912 98.9058C7.13585 99.0825 6.85485 99.6499 7.03149 100.173L8.92643 99.5335ZM9.42714 106.817C9.62477 107.332 10.2031 107.59 10.7188 107.393C11.2345 107.195 11.4923 106.617 11.2947 106.101L9.42714 106.817ZM13.9056 112.55C13.6891 112.042 13.1017 111.806 12.5936 112.023C12.0856 112.239 11.8493 112.827 12.0658 113.335L13.9056 112.55ZM14.9319 119.744C15.166 120.245 15.7613 120.46 16.2615 120.226C16.7617 119.992 16.9775 119.397 16.7434 118.897L14.9319 119.744ZM19.801 125.155C19.5504 124.663 18.9483 124.467 18.4561 124.718C17.964 124.969 17.7682 125.571 18.0188 126.063L19.801 125.155ZM21.3176 132.289C21.584 132.773 22.1922 132.949 22.676 132.682C23.1597 132.416 23.336 131.808 23.0696 131.324L21.3176 132.289ZM26.5418 137.399C26.2602 136.924 25.6468 136.767 25.1717 137.048C24.6966 137.33 24.5398 137.944 24.8214 138.419L26.5418 137.399ZM28.5 144.408C28.7964 144.874 29.4144 145.011 29.8805 144.715C30.3465 144.419 30.4841 143.801 30.1877 143.335L28.5 144.408ZM34.0145 149.151C33.7038 148.694 33.0818 148.576 32.6252 148.887C32.1686 149.197 32.0503 149.819 32.361 150.276L34.0145 149.151ZM36.4149 156.038C36.7397 156.485 37.3651 156.584 37.8118 156.259C38.2584 155.934 38.3573 155.309 38.0325 154.862L36.4149 156.038ZM42.2344 160.454C41.8958 160.018 41.2676 159.939 40.8313 160.277C40.395 160.616 40.3159 161.244 40.6546 161.681L42.2344 160.454ZM45.043 167.154C45.3952 167.579 46.0256 167.639 46.451 167.287C46.8764 166.934 46.9357 166.304 46.5835 165.879L45.043 167.154ZM51.1171 171.18C50.7515 170.766 50.1195 170.727 49.7056 171.092C49.2917 171.458 49.2525 172.09 49.6181 172.504L51.1171 171.18ZM54.3773 177.719C54.7561 178.121 55.389 178.14 55.7909 177.761C56.1927 177.382 56.2114 176.749 55.8325 176.347L54.3773 177.719ZM60.6837 181.327C60.2919 180.938 59.6588 180.94 59.2695 181.332C58.8803 181.724 58.8823 182.357 59.2741 182.746L60.6837 181.327ZM54.1435 2.01042C52.8725 1.82614 51.6297 1.66455 50.4146 1.52521L50.1868 3.51218C51.3814 3.64918 52.6044 3.80818 53.8565 3.98973L54.1435 2.01042ZM43.4522 0.952355C40.9054 0.832181 38.4995 0.825056 36.2294 0.925747L36.318 2.92378C38.5217 2.82604 40.8664 2.83256 43.358 2.95013L43.4522 0.952355ZM29.1947 1.64729C26.6967 2.06756 24.4036 2.65124 22.3062 3.38878L22.9697 5.27553C24.9484 4.57972 27.1294 4.02286 29.5265 3.61958L29.1947 1.64729ZM15.8048 6.54755C13.6777 7.93453 11.8632 9.55261 10.3406 11.3754L11.8756 12.6576C13.2682 10.9903 14.9328 9.50379 16.8972 8.22286L15.8048 6.54755ZM6.56268 17.5846C5.63777 19.7481 4.97647 22.0695 4.55028 24.5196L6.5207 24.8623C6.92364 22.5459 7.54465 20.3755 8.40168 18.3707L6.56268 17.5846ZM3.94813 31.6727C3.93657 33.9765 4.08073 36.3612 4.36388 38.8099L6.35064 38.5802C6.07553 36.201 5.93699 33.8969 5.9481 31.6827L3.94813 31.6727ZM5.51301 45.8526C5.98285 48.1208 6.55052 50.43 7.20509 52.7688L9.13108 52.2298C8.48763 49.9307 7.93112 47.6661 7.47144 45.4469L5.51301 45.8526ZM9.29255 59.4936C10.0385 61.6912 10.8498 63.9062 11.7181 66.1297L13.5811 65.4022C12.7229 63.2045 11.922 61.0179 11.1864 58.8508L9.29255 59.4936ZM14.4229 72.673C15.3574 74.8192 16.3375 76.9661 17.3557 79.1062L19.1617 78.2469C18.1525 76.1258 17.1818 73.9991 16.2566 71.8745L14.4229 72.673ZM20.4797 85.4243C21.5546 87.5205 22.66 89.603 23.7888 91.6642L25.543 90.7035C24.4225 88.6576 23.3257 86.5912 22.2594 84.5117L20.4797 85.4243ZM27.2527 97.8013C28.4434 99.8503 29.6513 101.87 30.8689 103.852L32.5731 102.805C31.3638 100.837 30.1643 98.831 28.9819 96.7964L27.2527 97.8013ZM34.6455 109.836C35.9503 111.849 37.2576 113.812 38.5587 115.714L40.2095 114.585C38.9178 112.696 37.6196 110.748 36.3238 108.749L34.6455 109.836ZM42.606 121.469C44.0278 123.434 45.4309 125.313 46.8029 127.094L48.3871 125.873C47.0279 124.109 45.6369 122.246 44.2263 120.297L42.606 121.469ZM51.2003 132.591C52.8458 134.566 54.421 136.36 55.9009 137.945L57.3627 136.58C55.9126 135.027 54.3624 133.262 52.737 131.311L51.2003 132.591ZM61.1098 142.988C62.5968 144.236 63.9495 145.16 65.1002 145.632C66.1927 146.081 67.5305 146.273 68.4391 145.27L66.9564 143.928C66.9546 143.929 66.7813 144.16 65.8595 143.782C64.996 143.428 63.8313 142.661 62.3954 141.456L61.1098 142.988ZM68.2316 137.627C67.6764 135.771 66.8712 133.551 65.7951 130.944L63.9464 131.707C65.0058 134.274 65.7853 136.427 66.3155 138.2L68.2316 137.627ZM62.9541 124.515C62.0237 122.52 60.9795 120.363 59.8155 118.038L58.0271 118.934C59.1839 121.244 60.2199 123.384 61.1415 125.361L62.9541 124.515ZM56.6556 111.878C56.0862 110.792 55.4951 109.676 54.8819 108.529L53.1181 109.471C53.7289 110.614 54.3174 111.726 54.8842 112.807L56.6556 111.878ZM54.8819 108.529C54.299 107.438 53.7207 106.366 53.1469 105.313L51.3904 106.269C51.9617 107.318 52.5376 108.386 53.1181 109.471L54.8819 108.529ZM49.7586 99.2052C48.5551 97.0777 47.373 95.0333 46.2124 93.07L44.4908 94.0878C45.6446 96.0396 46.8203 98.073 48.0178 100.19L49.7586 99.2052ZM42.6494 87.1869C41.3353 85.0715 40.0511 83.0659 38.7971 81.167L37.1282 82.2692C38.3713 84.1516 39.6455 86.1416 40.9505 88.2423L42.6494 87.1869ZM34.8053 75.3358C33.3617 73.3068 31.9627 71.43 30.6085 69.7003L29.0337 70.9331C30.3673 72.6367 31.7481 74.4888 33.1757 76.4953L34.8053 75.3358ZM26.0889 64.2779C24.3357 62.3184 22.6685 60.6326 21.0885 59.208L19.7492 60.6934C21.2673 62.0622 22.8842 63.6956 24.5984 65.6115L26.0889 64.2779ZM15.4046 54.9677C12.6791 53.4139 10.1952 52.7851 8.02568 53.1819L8.38543 55.1492C9.91245 54.87 11.9048 55.2746 14.4141 56.7052L15.4046 54.9677ZM2.39642 58.3224C1.58077 60.264 1.08218 62.6798 0.876925 65.4699L2.87154 65.6166C3.06682 62.962 3.53503 60.7759 4.24033 59.097L2.39642 58.3224ZM0.918432 72.5922C1.07685 74.8107 1.36074 77.1846 1.77075 79.6936L3.74456 79.371C3.34311 76.9144 3.06696 74.601 2.91335 72.4498L0.918432 72.5922ZM3.14561 86.6133C3.65505 88.8136 4.24715 91.0919 4.92262 93.438L6.84455 92.8847C6.17831 90.5706 5.59516 88.3264 5.09407 86.1621L3.14561 86.6133ZM7.03149 100.173C7.76442 102.344 8.56278 104.561 9.42714 106.817L11.2947 106.101C10.4398 103.87 9.65056 101.679 8.92643 99.5335L7.03149 100.173ZM12.0658 113.335C12.966 115.446 13.9212 117.585 14.9319 119.744L16.7434 118.897C15.7424 116.758 14.7966 114.641 13.9056 112.55L12.0658 113.335ZM18.0188 126.063C19.0689 128.125 20.1684 130.202 21.3176 132.289L23.0696 131.324C21.9308 129.256 20.8414 127.198 19.801 125.155L18.0188 126.063ZM24.8214 138.419C26.0025 140.411 27.2286 142.408 28.5 144.408L30.1877 143.335C28.9275 141.353 27.7124 139.373 26.5418 137.399L24.8214 138.419ZM32.361 150.276C33.6699 152.199 35.0211 154.121 36.4149 156.038L38.0325 154.862C36.6511 152.962 35.3118 151.057 34.0145 149.151L32.361 150.276ZM40.6546 161.681C42.0775 163.514 43.5403 165.339 45.043 167.154L46.5835 165.879C45.0943 164.08 43.6447 162.271 42.2344 160.454L40.6546 161.681ZM49.6181 172.504C51.1659 174.256 52.7522 175.995 54.3773 177.719L55.8325 176.347C54.2225 174.639 52.6507 172.916 51.1171 171.18L49.6181 172.504ZM59.2741 182.746C60.1091 183.576 60.9534 184.401 61.8071 185.221L63.1928 183.779C62.3472 182.966 61.5108 182.149 60.6837 181.327L59.2741 182.746Z" fill="url(#paint0_linear_14_178)"/>
<defs>
<linearGradient id="paint0_linear_14_178" x1="34.9818" y1="1.85574" x2="34.9818" y2="184.5" gradientUnits="userSpaceOnUse">
<stop stop-color="#52587D" stop-opacity="0.25"/>
<stop offset="1" stop-color="#52587D" stop-opacity="0.75"/>
</linearGradient>
</defs>
</svg>
