<svg width="1920" height="1080" viewBox="0 0 1920 1080" fill="none" xmlns="http://www.w3.org/2000/svg">
<g clip-path="url(#clip0_27_745)">
<rect width="1920" height="1080" fill="url(#paint0_linear_27_745)"/>
<path d="M-271 266.028L-246.064 285.046C-219.94 305.065 -170.068 343.101 -119.008 305.065C-67.9486 266.028 -18.0765 150.919 32.9832 112.883C84.0428 73.8461 133.915 112.883 184.975 140.91C236.034 169.937 285.906 188.955 336.966 169.937C388.026 150.919 437.898 92.8641 488.957 44.8186C540.017 -3.2268 589.889 -41.2628 640.949 -31.2533C692.008 -22.2448 741.881 35.8101 792.94 73.8461C844 112.883 893.872 131.901 944.932 102.874C995.991 73.8461 1096.33 13.2644 1147.39 13.2644C1198.45 13.2644 1248.32 90.3373 1299.38 119.365C1350.44 148.392 1349.85 112.883 1400.91 140.91C1451.97 169.937 1501.84 247.01 1552.9 227.992C1603.96 208.974 1653.83 130.9 1704.89 73.8461C1755.95 15.7912 1805.82 15.7912 1856.88 82.8546C1907.94 150.919 1957.81 247.01 1983.94 314.073L2008.87 381.137" stroke="#8290E5" stroke-opacity="0.2"/>
<path d="M-271 292.738L-246.131 311.756C-220.077 331.775 -170.339 369.811 -119.417 331.775C-68.4945 292.738 -18.7564 177.629 32.166 139.593C83.0883 100.556 132.826 139.593 183.749 167.619C234.671 196.647 284.409 215.665 335.332 196.647C386.254 177.629 435.992 119.574 486.914 71.5284C537.837 23.4829 587.575 -14.553 638.497 -4.54357C689.419 4.46495 739.158 62.5198 790.08 100.556C841.002 139.593 890.74 158.611 941.663 129.583C992.585 100.556 1092.65 39.9741 1143.58 39.9741C1194.5 39.9741 1244.24 117.047 1295.16 146.074C1346.08 175.102 1345.49 139.593 1396.41 167.619C1447.33 196.647 1497.07 273.72 1547.99 254.702C1598.92 235.684 1648.65 157.61 1699.58 100.556C1750.5 42.5009 1800.24 42.5009 1851.16 109.564C1902.08 177.629 1951.82 273.72 1977.87 340.783L2002.74 407.847" stroke="#8290E5" stroke-opacity="0.2"/>
<path d="M-271 319.447L-246.198 338.465C-220.215 358.484 -170.611 396.52 -119.825 358.484C-69.0404 319.447 -19.4363 204.338 31.3488 166.302C82.1338 127.265 131.738 166.302 182.523 194.329C233.308 223.356 282.912 242.374 333.697 223.356C384.482 204.338 434.086 146.283 484.871 98.238C535.656 50.1926 585.26 12.1566 636.046 22.1661C686.831 31.1746 736.435 89.2295 787.22 127.265C838.005 166.302 887.609 185.32 938.394 156.293C989.179 127.265 1088.98 66.6838 1139.76 66.6838C1190.55 66.6838 1240.15 143.757 1290.94 172.784C1341.72 201.812 1341.13 166.302 1391.92 194.329C1442.7 223.356 1492.31 300.429 1543.09 281.411C1593.88 262.393 1643.48 184.319 1694.26 127.265C1745.05 69.2106 1794.65 69.2106 1845.44 136.274C1896.22 204.338 1945.83 300.429 1971.81 367.493L1996.61 434.556" stroke="#8290E5" stroke-opacity="0.2"/>
<path d="M-271 346.157L-246.265 365.175C-220.352 385.194 -170.882 423.23 -120.234 385.194C-69.5862 346.157 -20.1163 231.048 30.5316 193.012C81.1794 153.975 130.649 193.012 181.297 221.039C231.945 250.066 281.415 269.084 332.063 250.066C382.711 231.048 432.18 172.993 482.828 124.948C533.476 76.9022 582.946 38.8663 633.594 48.8757C684.242 57.8843 733.712 115.939 784.359 153.975C835.007 193.012 884.477 212.03 935.125 183.003C985.773 153.975 1085.3 93.3934 1135.95 93.3934C1186.6 93.3934 1236.07 170.466 1286.72 199.494C1337.36 228.521 1336.77 193.012 1387.42 221.039C1438.07 250.066 1487.54 327.139 1538.19 308.121C1588.84 289.103 1638.31 211.029 1688.95 153.975C1739.6 95.9202 1789.07 95.9202 1839.72 162.984C1890.37 231.048 1939.84 327.139 1965.75 394.202L1990.48 461.266" stroke="#8290E5" stroke-opacity="0.2"/>
<path d="M-271 372.867L-246.332 391.885C-220.489 411.904 -171.153 449.94 -120.643 411.904C-70.1321 372.867 -20.7962 257.758 29.7144 219.722C80.2249 180.685 129.561 219.722 180.071 247.748C230.582 276.776 279.918 295.794 330.428 276.776C380.939 257.758 430.275 199.703 480.785 151.657C531.296 103.612 580.632 65.576 631.142 75.5855C681.653 84.594 730.989 142.649 781.499 180.685C832.01 219.722 881.346 238.74 931.856 209.712C982.367 180.685 1081.63 120.103 1132.14 120.103C1182.65 120.103 1231.98 197.176 1282.49 226.204C1333 255.231 1332.42 219.722 1382.93 247.748C1433.44 276.776 1482.77 353.849 1533.28 334.831C1583.79 315.813 1633.13 237.739 1683.64 180.685C1734.15 122.63 1783.49 122.63 1834 189.693C1884.51 257.758 1933.84 353.849 1959.69 420.912L1984.36 487.976" stroke="#8290E5" stroke-opacity="0.2"/>
<path d="M-271 399.576L-246.399 418.594C-220.626 438.613 -171.425 476.649 -121.051 438.613C-70.678 399.576 -21.4762 284.467 28.8971 246.432C79.2704 207.395 128.472 246.431 178.846 274.458C229.219 303.485 278.421 322.503 328.794 303.486C379.167 284.468 428.369 226.413 478.742 178.367C529.116 130.322 578.317 92.2857 628.691 102.295C679.064 111.304 728.266 169.359 778.639 207.395C829.012 246.431 878.214 265.449 928.587 236.422C978.961 207.395 1077.95 146.813 1128.32 146.813C1178.7 146.813 1227.9 223.886 1278.27 252.913C1328.65 281.941 1328.06 246.431 1378.43 274.458C1428.81 303.485 1478.01 380.558 1528.38 361.54C1578.75 342.522 1627.96 264.449 1678.33 207.395C1728.7 149.34 1777.9 149.34 1828.28 216.403C1878.65 284.467 1927.85 380.558 1953.63 447.622L1978.23 514.685" stroke="#8290E5" stroke-opacity="0.2"/>
<path d="M-271 426.286L-246.466 445.304C-220.764 465.323 -171.696 503.359 -121.46 465.323C-71.2238 426.286 -22.1561 311.177 28.0799 273.141C78.3159 234.104 127.384 273.141 177.62 301.168C227.856 330.195 276.923 349.213 327.159 330.195C377.396 311.177 426.463 253.122 476.699 205.077C526.935 157.031 576.003 118.995 626.239 129.005C676.475 138.013 725.543 196.068 775.779 234.104C826.015 273.141 875.083 292.159 925.319 263.132C975.555 234.104 1074.27 173.523 1124.51 173.523C1174.75 173.523 1223.81 250.595 1274.05 279.623C1324.29 308.65 1323.7 273.141 1373.94 301.168C1424.17 330.195 1473.24 407.268 1523.48 388.25C1573.71 369.232 1622.78 291.158 1673.02 234.104C1723.25 176.049 1772.32 176.049 1822.56 243.113C1872.79 311.177 1921.86 407.268 1947.56 474.332L1972.1 541.395" stroke="#8290E5" stroke-opacity="0.2"/>
<path d="M-271 452.996L-246.533 472.014C-220.901 492.033 -171.967 530.069 -121.868 492.033C-71.7697 452.996 -22.836 337.887 27.2627 299.851C77.3615 260.814 126.295 299.851 176.394 327.877C226.493 356.905 275.426 375.923 325.525 356.905C375.624 337.887 424.557 279.832 474.656 231.787C524.755 183.741 573.689 145.705 623.787 155.715C673.886 164.723 722.82 222.778 772.919 260.814C823.017 299.851 871.951 318.869 922.05 289.841C972.149 260.814 1070.6 200.232 1120.7 200.232C1170.8 200.232 1219.73 277.305 1269.83 306.333C1319.93 335.36 1319.34 299.851 1369.44 327.877C1419.54 356.905 1468.48 433.978 1518.57 414.96C1568.67 395.942 1617.61 317.868 1667.71 260.814C1717.8 202.759 1766.74 202.759 1816.84 269.823C1866.94 337.887 1915.87 433.978 1941.5 501.041L1965.97 568.105" stroke="#8290E5" stroke-opacity="0.2"/>
<path d="M-271 479.705L-246.6 498.723C-221.038 518.742 -172.239 556.778 -122.277 518.742C-72.3156 479.705 -23.516 364.597 26.4455 326.561C76.407 287.524 125.207 326.561 175.168 354.587C225.13 383.614 273.929 402.633 323.891 383.615C373.852 364.597 422.652 306.542 472.613 258.496C522.575 210.451 571.374 172.415 621.336 182.424C671.297 191.433 720.097 249.488 770.058 287.524C820.02 326.561 868.82 345.579 918.781 316.551C968.742 287.524 1066.92 226.942 1116.88 226.942C1166.85 226.942 1215.65 304.015 1265.61 333.042C1315.57 362.07 1314.99 326.561 1364.95 354.587C1414.91 383.614 1463.71 460.687 1513.67 441.669C1563.63 422.651 1612.43 344.578 1662.39 287.524C1712.36 229.469 1761.16 229.469 1811.12 296.532C1861.08 364.597 1909.88 460.687 1935.44 527.751L1959.84 594.814" stroke="#8290E5" stroke-opacity="0.2"/>
<path d="M-271 506.415L-246.667 525.433C-221.175 545.452 -172.51 583.488 -122.686 545.452C-72.8614 506.415 -24.1959 391.306 25.6283 353.27C75.4526 314.233 124.118 353.27 173.942 381.297C223.767 410.324 272.432 429.342 322.256 410.324C372.081 391.306 420.746 333.251 470.57 285.206C520.394 237.16 569.06 199.124 618.884 209.134C668.708 218.142 717.374 276.197 767.198 314.233C817.022 353.27 865.688 372.288 915.512 343.261C965.336 314.233 1063.25 253.652 1113.07 253.652C1162.9 253.652 1211.56 330.725 1261.39 359.752C1311.21 388.779 1310.63 353.27 1360.45 381.297C1410.28 410.324 1458.94 487.397 1508.77 468.379C1558.59 449.361 1607.26 371.287 1657.08 314.233C1706.91 256.178 1755.57 256.178 1805.4 323.242C1855.22 391.306 1903.89 487.397 1929.38 554.461L1953.71 621.524" stroke="#8290E5" stroke-opacity="0.2"/>
<path d="M-271 533.125L-246.734 552.143C-221.313 572.162 -172.781 610.198 -123.094 572.162C-73.4073 533.125 -24.8758 418.016 24.8111 379.98C74.4981 340.943 123.03 379.98 172.716 408.006C222.403 437.034 270.935 456.052 320.622 437.034C370.309 418.016 418.84 359.961 468.527 311.916C518.214 263.87 566.746 225.834 616.433 235.844C666.12 244.852 714.651 302.907 764.338 340.943C814.025 379.98 862.556 398.998 912.243 369.97C961.93 340.943 1059.57 280.361 1109.26 280.361C1158.94 280.361 1207.48 357.434 1257.16 386.462C1306.85 415.489 1306.27 379.98 1355.96 408.006C1405.65 437.034 1454.18 514.107 1503.86 495.089C1553.55 476.071 1602.08 397.997 1651.77 340.943C1701.46 282.888 1749.99 282.888 1799.68 349.952C1849.36 418.016 1897.89 514.107 1923.32 581.17L1947.58 648.234" stroke="#8290E5" stroke-opacity="0.2"/>
<path d="M-271 559.835L-246.801 578.853C-221.45 598.872 -173.053 636.908 -123.503 598.872C-73.9532 559.835 -25.5558 444.726 23.9939 406.69C73.5436 367.653 121.941 406.69 171.491 434.716C221.04 463.744 269.438 482.762 318.987 463.744C368.537 444.726 416.935 386.671 466.484 338.625C516.034 290.58 564.431 252.544 613.981 262.553C663.531 271.562 711.928 329.617 761.478 367.653C811.027 406.69 859.425 425.708 908.975 396.68C958.524 367.653 1055.9 307.071 1105.44 307.071C1154.99 307.071 1203.39 384.144 1252.94 413.171C1302.49 442.199 1301.92 406.69 1351.46 434.716C1401.01 463.744 1449.41 540.817 1498.96 521.799C1548.51 502.781 1596.91 424.707 1646.46 367.653C1696.01 309.598 1744.41 309.598 1793.96 376.661C1843.5 444.726 1891.9 540.817 1917.25 607.88L1941.45 674.943" stroke="#8290E5" stroke-opacity="0.2"/>
<path d="M-271 586.544L-246.868 605.562C-221.587 625.581 -173.324 663.617 -123.911 625.581C-74.499 586.544 -26.2357 471.435 23.1767 433.399C72.5891 394.362 120.852 433.399 170.265 461.426C219.677 490.453 267.941 509.471 317.353 490.453C366.765 471.435 415.029 413.38 464.441 365.335C513.854 317.289 562.117 279.253 611.529 289.263C660.942 298.271 709.205 356.326 758.618 394.362C808.03 433.399 856.293 452.417 905.706 423.39C955.118 394.362 1052.22 333.781 1101.63 333.781C1151.04 333.781 1199.31 410.854 1248.72 439.881C1298.13 468.908 1297.56 433.399 1346.97 461.426C1396.38 490.453 1444.65 567.526 1494.06 548.508C1543.47 529.49 1591.73 451.416 1641.15 394.362C1690.56 336.307 1738.82 336.307 1788.23 403.371C1837.65 471.435 1885.91 567.526 1911.19 634.59L1935.32 701.653" stroke="#8290E5" stroke-opacity="0.2"/>
<path d="M-271 613.254L-246.935 632.272C-221.724 652.291 -173.595 690.327 -124.32 652.291C-75.0449 613.254 -26.9157 498.145 22.3595 460.109C71.6347 421.072 119.764 460.109 169.039 488.135C218.314 517.163 266.443 536.181 315.719 517.163C364.994 498.145 413.123 440.09 462.398 392.045C511.673 343.999 559.803 305.963 609.078 315.973C658.353 324.981 706.482 383.036 755.757 421.072C805.032 460.109 853.162 479.127 902.437 450.1C951.712 421.072 1048.54 360.49 1097.82 360.49C1147.09 360.49 1195.22 437.563 1244.5 466.591C1293.77 495.618 1293.2 460.109 1342.48 488.135C1391.75 517.163 1439.88 594.236 1489.16 575.218C1538.43 556.2 1586.56 478.126 1635.83 421.072C1685.11 363.017 1733.24 363.017 1782.51 430.081C1831.79 498.145 1879.92 594.236 1905.13 661.299L1929.19 728.363" stroke="#8290E5" stroke-opacity="0.2"/>
<path d="M-271 639.964L-247.002 658.981C-221.862 679 -173.867 717.036 -124.729 679C-75.5908 639.964 -27.5956 524.855 21.5423 486.819C70.6802 447.782 118.675 486.819 167.813 514.845C216.951 543.873 264.946 562.891 314.084 543.873C363.222 524.855 411.217 466.8 460.355 418.754C509.493 370.709 557.488 332.673 606.626 342.682C655.764 351.691 703.759 409.746 752.897 447.782C802.035 486.819 850.03 505.837 899.168 476.809C948.306 447.782 1044.87 387.2 1094.01 387.2C1143.14 387.2 1191.14 464.273 1240.28 493.3C1289.41 522.328 1288.84 486.819 1337.98 514.845C1387.12 543.873 1435.11 620.946 1484.25 601.928C1533.39 582.91 1581.39 504.836 1630.52 447.782C1679.66 389.727 1727.66 389.727 1776.79 456.79C1825.93 524.855 1873.93 620.946 1899.07 688.009L1923.06 755.072" stroke="#8290E5" stroke-opacity="0.2"/>
<path d="M-271 666.673L-247.069 685.691C-221.999 705.71 -174.138 743.746 -125.137 705.71C-76.1366 666.673 -28.2755 551.564 20.7251 513.528C69.7257 474.492 117.587 513.528 166.587 541.555C215.588 570.582 263.449 589.6 312.45 570.582C361.45 551.564 409.312 493.509 458.312 445.464C507.313 397.419 555.174 359.383 604.175 369.392C653.175 378.401 701.036 436.456 750.037 474.491C799.038 513.528 846.899 532.546 895.899 503.519C944.9 474.491 1041.19 413.91 1090.19 413.91C1139.19 413.91 1187.05 490.983 1236.05 520.01C1285.06 549.038 1284.49 513.528 1333.49 541.555C1382.49 570.582 1430.35 647.655 1479.35 628.637C1528.35 609.619 1576.21 531.545 1625.21 474.491C1674.21 416.437 1722.07 416.437 1771.07 483.5C1820.07 551.564 1867.94 647.655 1893.01 714.719L1916.94 781.782" stroke="#8290E5" stroke-opacity="0.2"/>
<path d="M-271 693.383L-247.136 712.401C-222.136 732.42 -174.409 770.456 -125.546 732.42C-76.6825 693.383 -28.9555 578.274 19.9079 540.238C68.7713 501.201 116.498 540.238 165.362 568.265C214.225 597.292 261.952 616.31 310.815 597.292C359.679 578.274 407.406 520.219 456.269 472.174C505.133 424.128 552.86 386.092 601.723 396.102C650.586 405.11 698.313 463.165 747.177 501.201C796.04 540.238 843.767 559.256 892.63 530.229C941.494 501.201 1037.52 440.619 1086.38 440.619C1135.24 440.619 1182.97 517.692 1231.83 546.72C1280.7 575.747 1280.13 540.238 1328.99 568.265C1377.86 597.292 1425.58 674.365 1474.45 655.347C1523.31 636.329 1571.04 558.255 1619.9 501.201C1668.76 443.146 1716.49 443.146 1765.35 510.21C1814.22 578.274 1861.94 674.365 1886.94 741.428L1910.81 808.492" stroke="#8290E5" stroke-opacity="0.2"/>
<path d="M-271 720.093L-247.203 739.111C-222.274 759.13 -174.681 797.166 -125.954 759.13C-77.2284 720.093 -29.6354 604.984 19.0907 566.948C67.8168 527.911 115.41 566.948 164.136 594.974C212.862 624.002 260.455 643.02 309.181 624.002C357.907 604.984 405.5 546.929 454.226 498.883C502.952 450.838 550.545 412.802 599.271 422.811C647.997 431.82 695.59 489.875 744.316 527.911C793.043 566.948 840.636 585.966 889.362 556.938C938.088 527.911 1033.84 467.329 1082.57 467.329C1131.29 467.329 1178.89 544.402 1227.61 573.429C1276.34 602.457 1275.77 566.948 1324.5 594.974C1373.22 624.002 1420.82 701.075 1469.54 682.057C1518.27 663.039 1565.86 584.965 1614.59 527.911C1663.31 469.856 1710.91 469.856 1759.63 536.919C1808.36 604.984 1855.95 701.075 1880.88 768.138L1904.68 835.202" stroke="#8290E5" stroke-opacity="0.2"/>
<path d="M-271 746.802L-247.27 765.82C-222.411 785.839 -174.952 823.875 -126.363 785.839C-77.7742 746.802 -30.3153 631.693 18.2735 593.657C66.8623 554.621 114.321 593.657 162.91 621.684C211.499 650.711 258.958 669.729 307.547 650.711C356.135 631.693 403.594 573.639 452.183 525.593C500.772 477.548 548.231 439.512 596.82 449.521C645.409 458.53 692.867 516.585 741.456 554.621C790.045 593.657 837.504 612.675 886.093 583.648C934.682 554.621 1030.16 494.039 1078.75 494.039C1127.34 494.039 1174.8 571.112 1223.39 600.139C1271.98 629.167 1271.41 593.657 1320 621.684C1368.59 650.711 1416.05 727.784 1464.64 708.766C1513.23 689.748 1560.69 611.674 1609.28 554.621C1657.86 496.566 1705.32 496.566 1753.91 563.629C1802.5 631.693 1849.96 727.784 1874.82 794.848L1898.55 861.911" stroke="#8290E5" stroke-opacity="0.2"/>
<path d="M-271 773.512L-247.337 792.53C-222.548 812.549 -175.223 850.585 -126.772 812.549C-78.3201 773.512 -30.9953 658.403 17.4563 620.367C65.9078 581.33 113.233 620.367 161.684 648.394C210.136 677.421 257.461 696.439 305.912 677.421C354.364 658.403 401.689 600.348 450.14 552.303C498.592 504.257 545.917 466.221 594.368 476.231C642.82 485.239 690.144 543.294 738.596 581.33C787.048 620.367 834.372 639.385 882.824 610.358C931.276 581.33 1026.49 520.748 1074.94 520.748C1123.39 520.748 1170.72 597.821 1219.17 626.849C1267.62 655.876 1267.06 620.367 1315.51 648.394C1363.96 677.421 1411.28 754.494 1459.74 735.476C1508.19 716.458 1555.51 638.384 1603.96 581.33C1652.42 523.275 1699.74 523.275 1748.19 590.339C1796.64 658.403 1843.97 754.494 1868.76 821.557L1892.42 888.621" stroke="#8290E5" stroke-opacity="0.2"/>
<path d="M-271 800.222L-247.404 819.24C-222.685 839.259 -175.495 877.295 -127.18 839.259C-78.866 800.222 -31.6752 685.113 16.6391 647.077C64.9534 608.04 112.144 647.077 160.458 675.103C208.773 704.131 255.963 723.149 304.278 704.131C352.592 685.113 399.783 627.058 448.097 579.012C496.411 530.967 543.602 492.931 591.917 502.94C640.231 511.949 687.422 570.004 735.736 608.04C784.05 647.077 831.241 666.095 879.555 637.067C927.869 608.04 1022.81 547.458 1071.13 547.458C1119.44 547.458 1166.63 624.531 1214.95 653.559C1263.26 682.586 1262.7 647.077 1311.01 675.103C1359.33 704.131 1406.52 781.204 1454.83 762.186C1503.15 743.168 1550.34 665.094 1598.65 608.04C1646.97 549.985 1694.16 549.985 1742.47 617.048C1790.79 685.113 1837.98 781.204 1862.7 848.267L1886.29 915.331" stroke="#8290E5" stroke-opacity="0.2"/>
<path d="M-271 826.931L-247.471 845.949C-222.823 865.968 -175.766 904.004 -127.589 865.968C-79.4118 826.931 -32.3552 711.822 15.8219 673.786C63.9989 634.75 111.056 673.786 159.233 701.813C207.41 730.84 254.466 749.858 302.643 730.84C350.82 711.822 397.877 653.768 446.054 605.722C494.231 557.677 541.288 519.641 589.465 529.65C637.642 538.659 684.699 596.714 732.876 634.75C781.053 673.786 828.109 692.804 876.286 663.777C924.463 634.75 1019.14 574.168 1067.31 574.168C1115.49 574.168 1162.55 651.241 1210.72 680.268C1258.9 709.296 1258.34 673.786 1306.52 701.813C1354.7 730.84 1401.75 807.913 1449.93 788.895C1498.11 769.877 1545.16 691.804 1593.34 634.75C1641.52 576.695 1688.57 576.695 1736.75 643.758C1784.93 711.822 1831.98 807.913 1856.63 874.977L1880.16 942.04" stroke="#8290E5" stroke-opacity="0.2"/>
<path d="M-271 853.641L-247.538 872.659C-222.96 892.678 -176.037 930.714 -127.997 892.678C-79.9577 853.641 -33.0351 738.532 15.0047 700.496C63.0445 661.459 109.967 700.496 158.007 728.523C206.047 757.55 252.969 776.568 301.009 757.55C349.049 738.532 395.971 680.477 444.011 632.432C492.051 584.386 538.973 546.35 587.013 556.36C635.053 565.368 681.976 623.423 730.015 661.459C778.055 700.496 824.978 719.514 873.018 690.487C921.057 661.459 1015.46 600.878 1063.5 600.878C1111.54 600.878 1158.46 677.95 1206.5 706.978C1254.54 736.005 1253.98 700.496 1302.02 728.523C1350.06 757.55 1396.99 834.623 1445.03 815.605C1493.07 796.587 1539.99 718.513 1588.03 661.459C1636.07 603.404 1682.99 603.404 1731.03 670.468C1779.07 738.532 1825.99 834.623 1850.57 901.687L1874.03 968.75" stroke="#8290E5" stroke-opacity="0.2"/>
<path d="M-271 880.351L-247.605 899.369C-223.097 919.388 -176.309 957.424 -128.406 919.388C-80.5036 880.351 -33.715 765.242 14.1875 727.206C62.09 688.169 108.878 727.206 156.781 755.232C204.684 784.26 251.472 803.278 299.375 784.26C347.277 765.242 394.066 707.187 441.968 659.142C489.871 611.096 536.659 573.06 584.562 583.07C632.464 592.078 679.253 650.133 727.155 688.169C775.058 727.206 821.846 746.224 869.749 717.196C917.651 688.169 1011.79 627.587 1059.69 627.587C1107.59 627.587 1154.38 704.66 1202.28 733.688C1250.18 762.715 1249.63 727.206 1297.53 755.232C1345.43 784.26 1392.22 861.333 1440.12 842.315C1488.03 823.297 1534.81 745.223 1582.72 688.169C1630.62 630.114 1677.41 630.114 1725.31 697.178C1773.21 765.242 1820 861.333 1844.51 928.396L1867.9 995.46" stroke="#8290E5" stroke-opacity="0.2"/>
<path d="M-271 907.06L-247.672 926.078C-223.234 946.097 -176.58 984.133 -128.815 946.097C-81.0494 907.06 -34.395 791.951 13.3703 753.916C61.1355 714.879 107.79 753.916 155.555 781.942C203.32 810.969 249.975 829.988 297.74 810.97C345.505 791.952 392.16 733.897 439.925 685.851C487.69 637.806 534.345 599.77 582.11 609.779C629.875 618.788 676.53 676.843 724.295 714.879C772.06 753.916 818.715 772.933 866.48 743.906C914.245 714.879 1008.11 654.297 1055.87 654.297C1103.64 654.297 1150.29 731.37 1198.06 760.397C1245.82 789.425 1245.27 753.916 1293.03 781.942C1340.8 810.969 1387.45 888.042 1435.22 869.024C1482.98 850.006 1529.64 771.933 1577.4 714.879C1625.17 656.824 1671.82 656.824 1719.59 723.887C1767.35 791.951 1814.01 888.042 1838.45 955.106L1861.77 1022.17" stroke="#8290E5" stroke-opacity="0.2"/>
<path d="M-271 933.77L-247.739 952.788C-223.372 972.807 -176.851 1010.84 -129.223 972.807C-81.5953 933.77 -35.075 818.661 12.553 780.625C60.181 741.588 106.701 780.625 154.329 808.652C201.957 837.679 248.478 856.697 296.106 837.679C343.734 818.661 390.254 760.606 437.882 712.561C485.51 664.515 532.03 626.479 579.658 636.489C627.286 645.497 673.807 703.552 721.435 741.588C769.063 780.625 815.583 799.643 863.211 770.616C910.839 741.588 1004.43 681.006 1052.06 681.006C1099.69 681.006 1146.21 758.079 1193.84 787.107C1241.47 816.134 1240.91 780.625 1288.54 808.652C1336.17 837.679 1382.69 914.752 1430.32 895.734C1477.94 876.716 1524.46 798.642 1572.09 741.588C1619.72 683.533 1666.24 683.533 1713.87 750.597C1761.5 818.661 1808.02 914.752 1832.39 981.815L1855.65 1048.88" stroke="#8290E5" stroke-opacity="0.2"/>
<path d="M-271 960.48L-247.806 979.498C-223.509 999.517 -177.123 1037.55 -129.632 999.517C-82.1412 960.48 -35.7549 845.371 11.7358 807.335C59.2266 768.298 105.613 807.335 153.104 835.361C200.594 864.389 246.981 883.407 294.471 864.389C341.962 845.371 388.348 787.316 435.839 739.27C483.33 691.225 529.716 653.189 577.207 663.198C624.698 672.207 671.084 730.262 718.575 768.298C766.065 807.335 812.452 826.353 859.942 797.325C907.433 768.298 1000.76 707.716 1048.25 707.716C1095.74 707.716 1142.13 784.789 1189.62 813.816C1237.11 842.844 1236.55 807.335 1284.05 835.361C1331.54 864.389 1377.92 941.462 1425.41 922.444C1472.9 903.426 1519.29 825.352 1566.78 768.298C1614.27 710.243 1660.66 710.243 1708.15 777.306C1755.64 845.371 1802.03 941.462 1826.32 1008.53L1849.52 1075.59" stroke="#8290E5" stroke-opacity="0.2"/>
<path d="M-271 987.189L-247.874 1006.21C-223.646 1026.23 -177.394 1064.26 -130.04 1026.23C-82.687 987.189 -36.4348 872.08 10.9186 834.044C58.2721 795.007 104.524 834.044 151.878 862.071C199.231 891.098 245.483 910.116 292.837 891.098C340.19 872.08 386.443 814.025 433.796 765.98C481.15 717.934 527.402 679.899 574.755 689.908C622.109 698.916 668.361 756.971 715.714 795.007C763.068 834.044 809.32 853.062 856.673 824.035C904.027 795.007 997.082 734.426 1044.44 734.426C1091.79 734.426 1138.04 811.499 1185.39 840.526C1232.75 869.553 1232.2 834.044 1279.55 862.071C1326.9 891.098 1373.16 968.171 1420.51 949.153C1467.86 930.135 1514.12 852.061 1561.47 795.007C1608.82 736.952 1655.07 736.952 1702.43 804.016C1749.78 872.08 1796.03 968.171 1820.26 1035.23L1843.39 1102.3" stroke="#8290E5" stroke-opacity="0.2"/>
<path d="M-271 1013.9L-247.941 1032.92C-223.783 1052.94 -177.665 1090.97 -130.449 1052.94C-83.2329 1013.9 -37.1148 898.79 10.1014 860.754C57.3176 821.717 103.436 860.754 150.652 888.781C197.868 917.808 243.986 936.826 291.203 917.808C338.419 898.79 384.537 840.735 431.753 792.69C478.969 744.644 525.087 706.608 572.304 716.618C619.52 725.626 665.638 783.681 712.854 821.717C760.07 860.754 806.188 879.772 853.405 850.745C900.621 821.717 993.406 761.135 1040.62 761.135C1087.84 761.135 1133.96 838.208 1181.17 867.236C1228.39 896.263 1227.84 860.754 1275.06 888.781C1322.27 917.808 1368.39 994.881 1415.61 975.863C1462.82 956.845 1508.94 878.771 1556.16 821.717C1603.37 763.662 1649.49 763.662 1696.71 830.726C1743.92 898.79 1790.04 994.881 1814.2 1061.94L1837.26 1129.01" stroke="#8290E5" stroke-opacity="0.2"/>
<path d="M-271 1040.61L-248.008 1059.63C-223.921 1079.65 -177.937 1117.68 -130.858 1079.65C-83.7788 1040.61 -37.7947 925.5 9.28424 887.464C56.3632 848.427 102.347 887.464 149.426 915.49C196.505 944.518 242.489 963.536 289.568 944.518C336.647 925.5 382.631 867.445 429.71 819.399C476.789 771.354 522.773 733.318 569.852 743.327C616.931 752.336 662.915 810.391 709.994 848.427C757.073 887.464 803.057 906.482 850.136 877.454C897.215 848.427 989.73 787.845 1036.81 787.845C1083.89 787.845 1129.87 864.918 1176.95 893.945C1224.03 922.973 1223.48 887.464 1270.56 915.49C1317.64 944.518 1363.62 1021.59 1410.7 1002.57C1457.78 983.555 1503.77 905.481 1550.85 848.427C1597.92 790.372 1643.91 790.372 1690.99 857.435C1738.07 925.5 1784.05 1021.59 1808.14 1088.65L1831.13 1155.72" stroke="#8290E5" stroke-opacity="0.2"/>
<path d="M112.089 -146.957L130.799 -121.723C150.374 -95.1959 187.794 -44.7276 247.565 -66.9836C307.615 -90.2009 387.727 -186.807 447.498 -209.063C507.548 -232.28 544.689 -180.85 586.044 -139.663C627.119 -97.5138 669.841 -65.3095 724.31 -69.3015C778.779 -73.2934 842.987 -115.107 905.548 -146.976C968.109 -178.844 1026.74 -201.432 1073.11 -177.547C1119.77 -154.624 1151.61 -84.9302 1190.17 -34.1299C1228.46 17.6317 1271.18 49.8359 1328.44 36.2313C1385.7 22.6267 1499.21 -7.50711 1548.37 6.765C1597.54 21.0371 1624.08 108.995 1665.16 151.144C1706.23 193.293 1715.56 159.025 1756.91 200.213C1797.99 242.362 1824.53 330.319 1878.99 326.327C1933.46 322.336 2003.25 261.297 2068.32 220.777C2133.68 179.295 2181.7 193.235 2212.17 271.913C2242.36 351.551 2263.6 457.773 2270.06 529.48L2275.38 600.855" stroke="#8290E5" stroke-opacity="0.2"/>
<path d="M-797.061 845.473L-785.721 873.016C-773.884 901.955 -751.203 957.041 -691.911 945.436C-632.149 932.946 -537.706 852.742 -478.414 841.137C-418.653 828.647 -396.44 884.618 -368.104 931.373C-340.237 979.013 -308.644 1017.3 -258.263 1022.49C-207.883 1027.69 -140.174 997.888 -76.1914 977.44C-12.2088 956.992 46.119 944.875 82.8978 975.714C120.146 1005.67 133.446 1078.44 157.092 1134.04C180.269 1190.52 211.862 1228.81 266.933 1225.16C322.004 1221.51 431.883 1211.22 473.352 1233.21C514.821 1255.21 519.211 1344.78 547.078 1392.42C574.945 1440.06 591.102 1408.44 619.438 1455.19C647.305 1502.83 651.694 1592.4 702.075 1597.6C752.456 1602.8 829.545 1555.31 897.749 1526.9C966.422 1497.61 1006.93 1519.1 1016.97 1600.34C1026.55 1682.46 1022.02 1788.84 1011.81 1859.34L1000.64 1929.32" stroke="#8290E5" stroke-opacity="0.2"/>
<path d="M68.697 -99.4316L87.0652 -74.0443C106.281 -47.3568 143.017 3.41771 202.808 -18.3117C262.887 -40.9996 343.751 -136.875 403.542 -158.604C463.621 -181.292 500.069 -129.559 540.825 -88.0278C581.293 -45.538 623.509 -12.9749 677.82 -16.4928C732.132 -20.0108 796.555 -61.2519 859.231 -92.5662C921.906 -123.881 980.561 -145.952 1026.51 -121.673C1072.74 -98.3534 1103.71 -28.409 1141.58 22.7073C1179.17 74.782 1221.38 107.345 1278.58 94.2422C1335.77 81.1393 1449.19 52.0013 1498.02 66.6947C1546.85 81.3881 1572.34 169.544 1612.81 212.034C1653.28 254.524 1662.94 220.349 1703.7 261.881C1744.16 304.371 1769.65 392.526 1823.96 389.008C1878.27 385.491 1948.47 325.08 2013.74 285.139C2079.3 244.239 2126.99 258.591 2156.5 337.504C2185.72 417.375 2205.73 523.742 2211.39 595.479L2215.91 666.874" stroke="#8290E5" stroke-opacity="0.2"/>
<path d="M25.3136 -51.933L43.3383 -26.3969C62.193 0.446193 98.2424 51.5184 158.05 30.3139C218.155 8.15382 299.762 -86.9857 359.569 -108.19C419.674 -130.35 455.425 -78.3225 495.58 -36.4552C535.437 6.36764 577.144 39.2828 631.294 36.2354C685.444 33.1879 750.078 -7.48059 812.863 -38.2414C875.648 -69.0021 934.327 -90.558 979.842 -65.8921C1025.65 -42.1819 1055.75 28.0029 1092.93 79.4265C1129.8 131.806 1171.51 164.721 1228.64 152.117C1285.77 139.513 1399.08 111.366 1447.57 126.476C1496.07 141.585 1520.5 229.927 1560.36 272.75C1600.22 315.573 1610.22 281.496 1650.37 323.363C1690.23 366.186 1714.66 454.528 1768.81 451.48C1822.96 448.433 1893.55 388.651 1959.02 349.29C2024.78 308.973 2072.14 323.731 2100.69 402.868C2128.93 482.96 2147.71 589.459 2152.57 661.217L2156.3 732.623" stroke="#8290E5" stroke-opacity="0.2"/>
<path d="M-18.0614 -4.46168L-0.381233 21.2189C18.1116 48.2132 53.472 99.5744 113.291 78.8931C173.416 57.2592 255.761 -37.1392 315.579 -57.8205C375.705 -79.4545 410.758 -27.1406 450.309 15.0548C489.553 58.2029 530.748 91.4633 584.732 88.8829C638.716 86.3025 703.557 46.2067 766.446 15.9986C829.336 -14.2094 888.035 -35.2516 933.113 -10.2044C978.499 13.8901 1007.72 84.3049 1044.2 136.027C1080.37 188.702 1121.57 221.962 1178.62 209.855C1235.68 197.748 1348.88 170.587 1397.03 186.108C1445.18 201.628 1468.56 290.144 1507.81 333.292C1547.05 376.44 1557.39 342.463 1596.94 384.658C1636.18 427.806 1659.56 516.322 1713.55 513.741C1767.53 511.161 1838.51 452.011 1904.17 413.229C1970.13 373.495 2017.16 388.654 2044.73 468.004C2072 548.306 2089.55 654.923 2093.61 726.693L2096.55 798.102" stroke="#8290E5" stroke-opacity="0.2"/>
<path d="M-61.4277 42.9825L-44.0931 68.8033C-25.9632 95.9442 8.70586 147.586 68.5314 127.426C128.673 106.317 211.748 12.6646 271.574 -7.49529C331.716 -28.6048 366.069 23.9865 405.013 66.5023C443.641 109.968 484.322 143.566 538.136 141.449C591.951 139.333 656.992 99.8097 719.981 70.1535C782.971 40.4973 841.685 19.967 886.324 45.3894C931.28 69.8622 959.621 140.496 995.402 192.509C1030.87 245.47 1071.55 279.069 1128.52 267.456C1185.5 255.843 1298.59 229.663 1346.39 245.589C1394.2 261.515 1416.53 350.193 1455.16 393.658C1493.78 437.124 1504.45 403.25 1543.4 445.765C1582.02 489.231 1604.35 577.908 1658.17 575.791C1711.98 573.674 1783.35 515.159 1849.19 476.956C1915.34 437.803 1962.03 453.359 1988.64 532.911C2014.93 613.412 2031.25 720.132 2034.51 791.905L2036.66 863.308" stroke="#8290E5" stroke-opacity="0.2"/>
<path d="M-104.785 90.3996L-87.797 116.356C-70.0312 143.639 -36.0555 195.553 23.7726 175.913C83.9263 155.326 167.725 62.4257 227.553 42.7853C287.707 22.1985 321.357 75.0585 359.693 117.887C397.703 161.662 437.866 195.592 491.507 193.935C545.148 192.278 610.385 153.328 673.47 124.223C736.554 95.1175 795.279 75.0975 839.476 100.889C883.999 125.734 911.462 196.577 946.541 248.87C981.295 302.11 1021.46 336.04 1078.35 324.919C1135.25 313.797 1248.21 288.594 1295.67 304.92C1343.12 321.247 1364.4 410.074 1402.41 453.849C1440.42 497.623 1451.42 463.856 1489.75 506.684C1527.76 550.459 1549.04 639.286 1602.68 637.629C1656.32 635.972 1728.07 578.092 1794.09 540.469C1860.43 501.898 1906.78 517.845 1932.41 597.587C1957.72 678.275 1972.81 785.085 1975.27 856.853L1976.63 928.242" stroke="#8290E5" stroke-opacity="0.2"/>
<path d="M-148.133 137.79L-131.493 163.878C-114.092 191.299 -80.8116 243.476 -20.9854 224.353C39.1757 204.287 123.692 112.144 183.518 93.0212C243.679 72.9553 276.625 126.075 314.349 169.208C351.739 213.285 391.382 247.539 444.845 246.339C498.309 245.138 563.737 206.761 626.912 178.206C690.087 149.651 748.818 130.139 792.57 156.293C836.657 181.504 863.24 252.547 897.616 305.112C931.657 358.621 971.299 392.876 1028.11 382.243C1084.92 371.61 1197.75 347.379 1244.85 364.1C1291.95 380.822 1312.17 469.786 1349.56 513.862C1386.95 557.938 1398.28 524.281 1436.01 567.414C1473.4 611.49 1493.62 700.455 1547.08 699.254C1600.55 698.054 1672.67 640.811 1738.86 603.767C1805.38 565.779 1851.39 582.111 1876.05 662.032C1900.38 742.895 1914.24 849.782 1915.9 921.536L1916.47 992.901" stroke="#8290E5" stroke-opacity="0.2"/>
<path d="M-191.471 185.153L-175.18 211.369C-158.145 238.922 -125.562 291.354 -65.742 272.747C-5.57807 253.2 79.6484 161.819 139.468 143.212C199.632 123.665 231.871 177.037 268.982 220.467C305.749 264.837 344.87 299.409 398.152 298.661C451.435 297.913 517.049 260.109 580.31 232.103C643.57 204.097 702.303 185.092 745.607 211.603C789.256 237.174 814.957 308.404 848.628 361.233C881.954 415.003 921.074 449.575 977.798 439.428C1034.52 429.281 1147.21 406.016 1193.95 423.127C1240.7 440.239 1259.86 529.328 1296.63 573.698C1333.39 618.068 1345.06 584.524 1382.17 627.954C1418.93 672.323 1438.1 761.413 1491.38 760.665C1544.66 759.917 1617.16 703.315 1683.52 666.849C1750.22 629.443 1795.88 646.156 1819.57 726.244C1842.92 807.272 1855.54 914.221 1856.41 985.952L1856.18 1057.29" stroke="#8290E5" stroke-opacity="0.2"/>
<path d="M-234.8 232.489L-218.858 258.828C-202.19 286.51 -170.306 339.188 -110.497 321.095C-50.3343 302.065 35.5957 211.451 95.4049 193.358C155.567 174.329 187.098 227.943 223.594 271.662C259.736 316.317 298.331 351.2 351.429 350.902C404.527 350.603 470.322 313.372 533.664 285.914C597.005 258.455 655.736 239.955 698.589 266.816C741.796 292.741 766.616 364.149 799.578 417.234C832.188 471.254 870.784 506.138 927.414 496.473C984.044 486.809 1096.58 464.506 1142.96 482.002C1189.35 499.498 1207.46 588.7 1243.6 633.356C1279.74 678.011 1291.73 644.583 1328.23 688.302C1364.37 732.958 1382.48 822.161 1435.58 821.862C1488.67 821.563 1561.53 765.601 1628.06 729.714C1694.93 692.89 1740.24 709.979 1762.96 790.223C1785.32 871.404 1796.72 978.401 1796.78 1050.1L1795.77 1121.39" stroke="#8290E5" stroke-opacity="0.2"/>
<path d="M-278.118 279.799L-262.527 306.257C-246.227 334.063 -215.043 386.978 -155.249 369.396C-95.0926 350.882 -8.46578 261.041 51.3285 243.459C111.485 224.945 142.306 278.793 178.184 322.793C213.699 367.726 251.767 402.913 304.677 403.06C357.586 403.207 423.557 366.549 486.975 339.637C550.393 312.725 609.117 294.729 651.517 321.934C694.28 348.206 718.216 419.782 750.47 473.112C782.361 527.376 820.43 562.563 876.963 553.379C933.496 544.195 1045.87 522.849 1091.89 540.723C1137.92 558.598 1154.97 647.902 1190.48 692.835C1226 737.768 1238.32 704.46 1274.2 748.46C1309.71 793.393 1326.76 882.696 1379.67 882.843C1432.58 882.99 1505.8 827.671 1572.48 792.362C1639.52 756.12 1684.48 773.579 1706.22 853.968C1727.6 935.29 1737.77 1042.32 1737.04 1113.98L1735.23 1185.22" stroke="#8290E5" stroke-opacity="0.2"/>
<path d="M-321.427 327.082L-306.186 353.654C-290.255 381.58 -259.774 434.723 -199.999 417.652C-139.852 399.651 -52.5356 310.587 7.23941 293.515C67.3859 275.515 97.4956 329.588 132.753 373.861C167.64 419.064 205.179 454.547 257.896 455.136C310.613 455.724 376.756 419.639 440.245 393.273C503.735 366.907 562.448 349.412 604.393 376.955C646.708 403.568 669.76 475.301 701.303 528.869C732.475 583.366 770.014 618.85 826.446 610.144C882.877 601.437 995.086 581.042 1040.74 599.291C1086.4 617.539 1102.4 706.931 1137.28 752.134C1172.17 797.337 1184.82 764.151 1220.08 808.425C1254.96 853.627 1270.96 943.02 1323.67 943.608C1376.39 944.197 1449.96 889.523 1516.79 854.792C1584 819.131 1628.6 836.955 1649.37 917.477C1669.77 998.929 1678.7 1105.98 1677.17 1177.59L1674.58 1248.78" stroke="#8290E5" stroke-opacity="0.2"/>
<path d="M-364.724 374.339L-349.835 401.021C-334.274 429.061 -304.496 482.425 -244.745 465.861C-184.613 448.372 -96.6132 360.09 -36.8617 343.526C23.2704 326.037 52.6673 380.326 87.3034 424.865C121.559 470.329 158.567 506.103 211.088 507.129C263.609 508.156 329.918 472.643 393.475 446.822C457.032 421.001 515.73 404.004 557.216 431.878C599.082 458.827 621.249 530.706 652.08 584.503C682.53 639.225 719.538 674.999 775.864 666.767C832.191 658.536 944.225 639.087 989.516 657.703C1034.81 676.32 1049.74 765.789 1084 811.253C1118.26 856.718 1131.23 823.658 1165.86 868.197C1200.12 913.661 1215.06 1003.13 1267.58 1004.16C1320.1 1005.18 1394.02 951.155 1461 917.002C1528.36 881.923 1572.6 900.106 1592.4 980.75C1611.81 1062.32 1619.52 1169.38 1617.19 1240.93L1613.82 1312.05" stroke="#8290E5" stroke-opacity="0.2"/>
<path d="M-408.011 421.569L-393.475 448.357C-378.283 476.508 -349.211 530.083 -289.487 514.025C-229.374 497.045 -140.698 409.55 -80.9743 393.492C-20.8608 376.512 7.82195 431.009 41.8346 475.805C75.4577 521.523 111.932 557.579 164.254 559.04C216.576 560.501 283.047 525.561 346.666 500.283C410.286 475.005 468.965 458.506 509.99 486.705C551.404 513.983 572.685 585.998 602.802 640.014C632.529 694.953 669.004 731.009 725.221 723.249C781.439 715.49 893.291 696.981 938.211 715.96C983.132 734.94 997.011 824.474 1030.63 870.192C1064.26 915.91 1077.56 882.98 1111.57 927.776C1145.19 973.494 1159.07 1063.03 1211.39 1064.49C1263.71 1065.95 1337.98 1012.57 1405.1 978.992C1472.62 944.494 1516.49 963.032 1535.31 1043.79C1553.74 1125.46 1560.22 1232.52 1557.1 1304L1552.94 1375.05" stroke="#8290E5" stroke-opacity="0.2"/>
<path d="M-451.287 468.773L-437.104 495.662C-422.283 523.919 -393.917 577.696 -334.225 562.142C-274.135 545.67 -184.79 458.966 -125.098 443.412C-65.0072 426.94 -37.0398 481.635 -3.65232 526.681C29.3366 572.645 65.2751 608.977 117.395 610.868C169.514 612.759 236.141 578.392 299.819 553.656C363.496 528.92 422.152 512.916 462.714 541.434C503.674 569.034 524.069 641.175 553.471 695.403C582.474 750.548 618.413 786.88 674.518 779.59C730.623 772.299 842.285 754.726 886.832 774.062C931.379 793.399 944.201 882.985 977.19 928.949C1010.18 974.913 1023.8 942.115 1057.19 987.16C1090.18 1033.12 1103 1122.71 1155.12 1124.6C1207.24 1126.49 1281.84 1073.76 1349.1 1040.76C1416.76 1006.84 1460.27 1025.73 1478.12 1106.59C1495.56 1188.36 1500.81 1295.39 1496.9 1366.8L1491.95 1437.76" stroke="#8290E5" stroke-opacity="0.2"/>
<path d="M-494.551 515.951L-480.722 542.937C-466.273 571.295 -438.614 625.266 -378.958 610.214C-318.895 594.247 -228.888 508.34 -169.232 493.287C-109.168 477.32 -81.9172 532.206 -49.1565 577.493C-16.8033 623.694 18.5977 660.295 70.5111 662.613C122.425 664.931 189.204 631.135 252.935 606.94C316.666 582.745 375.295 567.234 415.39 596.065C455.894 623.982 475.402 696.238 504.088 750.667C532.366 806.011 567.767 842.612 623.755 835.788C679.744 828.963 791.209 812.319 835.38 832.008C879.551 851.696 891.316 941.323 923.669 987.524C956.023 1033.73 969.966 1001.06 1002.73 1046.35C1035.08 1092.55 1046.85 1182.18 1098.76 1184.5C1150.67 1186.81 1225.6 1134.73 1293 1102.31C1360.81 1068.97 1403.95 1088.2 1420.82 1169.15C1437.28 1251 1441.3 1358 1436.6 1429.33L1430.87 1500.2" stroke="#8290E5" stroke-opacity="0.2"/>
<path d="M-537.803 563.103L-524.329 590.181C-510.252 618.636 -483.302 672.793 -423.686 658.239C-363.653 642.776 -272.991 557.67 -213.375 543.116C-153.343 527.653 -126.81 582.72 -94.6772 628.24C-62.9612 674.671 -28.0995 711.534 23.6046 714.275C75.3087 717.015 142.235 683.792 206.015 660.136C269.795 636.481 328.393 621.461 368.021 650.598C408.065 678.825 426.686 751.186 454.655 805.809C482.207 861.342 517.068 898.205 572.937 891.843C628.805 885.481 740.065 869.762 783.857 889.796C827.649 909.831 838.359 999.486 870.075 1045.92C901.791 1092.35 916.054 1059.82 948.187 1105.35C979.903 1151.78 990.612 1241.43 1042.32 1244.17C1094.02 1246.91 1169.27 1195.48 1236.8 1163.64C1304.75 1130.88 1347.52 1150.45 1363.41 1231.47C1378.89 1313.4 1381.69 1420.35 1376.19 1491.58L1369.68 1562.35" stroke="#8290E5" stroke-opacity="0.2"/>
<path d="M-581.044 610.229L-567.924 637.395C-554.22 665.942 -527.98 720.276 -468.408 706.219C-408.41 691.257 -317.1 606.957 -257.529 592.9C-197.531 577.938 -171.716 633.177 -140.214 678.924C-109.136 725.576 -74.8155 762.694 -23.3241 765.853C28.1673 769.013 95.2356 736.361 159.06 713.243C222.885 690.126 281.448 675.596 320.606 705.032C360.189 733.562 377.923 806.018 405.173 860.825C431.998 916.539 466.318 953.656 522.063 947.755C577.807 941.854 688.855 927.052 732.266 947.428C775.677 967.803 785.33 1057.47 816.408 1104.13C847.485 1150.78 862.068 1118.4 893.571 1164.14C924.648 1210.8 934.302 1300.47 985.793 1303.63C1037.28 1306.79 1112.86 1256.01 1180.51 1224.74C1248.59 1192.56 1290.99 1212.46 1305.91 1293.55C1320.4 1375.54 1321.97 1482.43 1315.69 1553.56L1308.39 1624.22" stroke="#8290E5" stroke-opacity="0.2"/>
<path d="M-624.273 657.329L-611.508 684.579C-598.177 713.214 -572.647 767.715 -513.123 754.154C-453.165 739.69 -361.214 656.2 -301.69 642.639C-241.732 628.175 -216.637 683.579 -185.765 729.543C-155.327 776.409 -121.549 813.774 -70.2739 817.349C-18.9984 820.923 48.2074 788.842 112.073 766.261C175.938 743.681 234.461 729.638 273.147 759.367C312.267 788.195 329.114 860.735 355.644 915.718C381.741 971.603 415.519 1008.97 471.136 1003.52C526.752 998.079 637.581 984.191 680.608 1004.9C723.635 1025.61 732.234 1115.29 762.672 1162.15C793.109 1209.02 808.01 1176.78 838.881 1222.75C869.319 1269.61 877.918 1359.29 929.193 1362.86C980.469 1366.44 1056.36 1316.32 1124.13 1285.62C1192.34 1254.02 1234.36 1274.25 1248.3 1355.39C1261.81 1437.43 1262.16 1544.24 1255.09 1615.27L1247.01 1685.81" stroke="#8290E5" stroke-opacity="0.2"/>
<path d="M-667.489 704.403L-655.08 731.733C-642.122 760.451 -617.303 815.111 -557.832 802.042C-497.917 788.076 -405.332 705.401 -345.86 692.332C-285.946 678.365 -261.57 733.923 -231.331 780.097C-201.534 827.169 -168.3 864.775 -117.244 868.76C-66.1872 872.746 1.15126 841.235 65.0522 819.19C128.953 797.145 187.433 783.587 225.645 813.603C264.3 842.722 280.26 915.336 306.071 970.486C331.438 1026.53 364.672 1064.14 420.157 1059.15C475.643 1054.16 586.245 1041.18 628.886 1062.22C671.527 1083.26 679.072 1172.93 708.868 1220C738.665 1267.07 753.881 1234.98 784.121 1281.16C813.917 1328.23 821.462 1417.89 872.519 1421.88C923.575 1425.87 999.772 1376.4 1067.66 1346.28C1135.99 1315.26 1177.64 1335.81 1190.6 1416.99C1203.13 1499.07 1202.26 1605.79 1194.4 1676.7L1185.55 1747.11" stroke="#8290E5" stroke-opacity="0.2"/>
<path d="M-710.693 751.452L-698.64 778.857C-686.055 807.653 -661.949 862.464 -602.533 849.886C-542.665 836.414 -449.454 754.558 -390.038 741.979C-330.17 728.507 -306.515 784.211 -276.909 830.587C-247.755 877.856 -215.067 915.696 -164.233 920.089C-113.398 924.482 -45.9318 893.541 18.0007 872.03C81.9332 850.518 140.366 837.443 178.102 867.74C216.29 897.144 231.363 969.82 256.453 1025.13C281.09 1081.33 313.779 1119.17 369.13 1114.63C424.48 1110.09 534.848 1098.01 577.101 1119.38C619.354 1140.74 625.845 1230.39 655 1277.66C684.154 1324.93 699.686 1292.99 729.292 1339.36C758.446 1386.63 764.938 1476.28 815.772 1480.67C866.606 1485.07 943.106 1436.26 1011.1 1406.71C1079.55 1376.27 1120.82 1397.14 1132.81 1478.35C1144.35 1560.45 1142.26 1667.07 1133.62 1737.85L1123.99 1808.13" stroke="#8290E5" stroke-opacity="0.2"/>
<path d="M-753.884 798.475L-742.187 825.951C-729.976 854.821 -706.582 909.774 -647.226 897.683C-587.41 884.704 -493.579 803.672 -434.223 791.581C-374.406 778.601 -351.472 834.443 -322.501 881.013C-293.99 928.471 -261.848 966.537 -211.239 971.333C-160.631 976.129 -93.0406 945.758 -29.0809 924.78C34.8787 903.801 93.2611 891.206 130.519 921.777C168.238 951.459 182.425 1024.19 206.793 1079.65C230.7 1135.99 262.841 1174.06 318.054 1169.97C373.267 1165.87 483.394 1154.69 525.256 1176.37C567.118 1198.06 572.558 1287.67 601.069 1335.13C629.58 1382.59 645.425 1350.81 674.397 1397.38C702.908 1444.84 708.348 1534.45 758.957 1539.25C809.566 1544.04 886.363 1495.9 954.466 1466.92C1023.03 1437.05 1063.92 1458.23 1074.93 1539.46C1085.49 1621.59 1082.18 1728.09 1072.76 1798.73L1062.36 1868.87" stroke="#8290E5" stroke-opacity="0.2"/>
</g>
<defs>
<linearGradient id="paint0_linear_27_745" x1="960" y1="0" x2="960" y2="1080" gradientUnits="userSpaceOnUse">
<stop stop-color="#F6FBFF"/>
<stop offset="1" stop-color="#C8E5FF"/>
</linearGradient>
<clipPath id="clip0_27_745">
<rect width="1920" height="1080" fill="white"/>
</clipPath>
</defs>
</svg>
