<svg width="36" height="40" viewBox="0 0 36 40" fill="none" xmlns="http://www.w3.org/2000/svg">
<path d="M5.66413 35.8579L6.60459 34.5635L5.66413 35.8579ZM3.69763 33.8914L4.99205 32.951L3.69763 33.8914ZM32.3024 33.8914L31.0079 32.951L31.0079 32.951L32.3024 33.8914ZM30.3359 35.8579L31.2763 37.1524L30.3359 35.8579ZM30.3359 7.25318L31.2763 5.95876L30.3359 7.25318ZM32.3024 9.21969L31.0079 10.1601L32.3024 9.21969ZM5.66413 7.25318L6.60459 8.54761L6.60459 8.54761L5.66413 7.25318ZM3.69763 9.21969L4.99205 10.1601L3.69763 9.21969ZM30.8317 26.9983L30.5814 25.418L30.5814 25.418L30.8317 26.9983ZM23.4428 34.3873L21.8625 34.137L21.8625 34.137L23.4428 34.3873ZM21.7333 7.33333C21.7333 8.21699 22.4497 8.93333 23.3333 8.93333C24.217 8.93333 24.9333 8.21699 24.9333 7.33333H21.7333ZM24.9333 2C24.9333 1.11634 24.217 0.4 23.3333 0.4C22.4497 0.4 21.7333 1.11634 21.7333 2H24.9333ZM11.0667 7.33333C11.0667 8.21699 11.783 8.93333 12.6667 8.93333C13.5503 8.93333 14.2667 8.21699 14.2667 7.33333H11.0667ZM14.2667 2C14.2667 1.11634 13.5503 0.4 12.6667 0.4C11.783 0.4 11.0667 1.11634 11.0667 2H14.2667ZM33.9486 26.8889L35.5476 26.9437L33.9486 26.8889ZM23.3333 37.5041L23.3881 39.1032L23.3333 37.5041ZM18 35.9556C14.6313 35.9556 12.2332 35.9534 10.3808 35.7527C8.55832 35.5552 7.45467 35.1811 6.60459 34.5635L4.72367 37.1524C6.21017 38.2324 7.94137 38.7071 10.0361 38.934C12.1009 39.1578 14.7025 39.1556 18 39.1556V35.9556ZM0.4 21.5556C0.4 24.853 0.397804 27.4546 0.621512 29.5194C0.848465 31.6142 1.32319 33.3454 2.4032 34.8319L4.99205 32.951C4.37443 32.1009 4.00035 30.9972 3.80289 29.1748C3.6022 27.3223 3.6 24.9243 3.6 21.5556H0.4ZM6.60459 34.5635C5.9858 34.1139 5.44163 33.5698 4.99205 32.951L2.4032 34.8319C3.05015 35.7223 3.83322 36.5054 4.72367 37.1524L6.60459 34.5635ZM31.0079 32.951C30.5584 33.5698 30.0142 34.1139 29.3954 34.5635L31.2763 37.1524C32.1668 36.5054 32.9499 35.7223 33.5968 34.8319L31.0079 32.951ZM35.6 21.5556C35.6 18.2581 35.6022 15.6565 35.3785 13.5917C35.1515 11.4969 34.6768 9.76573 33.5968 8.27923L31.0079 10.1601C31.6256 11.0102 31.9997 12.1139 32.1971 13.9364C32.3978 15.7888 32.4 18.1868 32.4 21.5556H35.6ZM29.3954 8.54761C30.0142 8.99719 30.5584 9.54136 31.0079 10.1601L33.5968 8.27923C32.9499 7.38878 32.1668 6.6057 31.2763 5.95876L29.3954 8.54761ZM3.6 21.5556C3.6 18.1868 3.6022 15.7888 3.80289 13.9364C4.00035 12.1139 4.37443 11.0102 4.99205 10.1601L2.4032 8.27923C1.32319 9.76573 0.848465 11.4969 0.621512 13.5917C0.397804 15.6565 0.4 18.2581 0.4 21.5556H3.6ZM4.72367 5.95876C3.83322 6.60571 3.05015 7.38878 2.4032 8.27923L4.99205 10.1601C5.44163 9.54136 5.9858 8.99719 6.60459 8.54761L4.72367 5.95876ZM30.5814 25.418C26.0933 26.1289 22.5733 29.6488 21.8625 34.137L25.0231 34.6375C25.5171 31.5187 27.9631 29.0726 31.082 28.5786L30.5814 25.418ZM14.2667 7.33333V5.60698H11.0667V7.33333H14.2667ZM14.2667 5.60698V2H11.0667V5.60698H14.2667ZM18 3.95556C15.9308 3.95556 14.1462 3.95536 12.6119 4.00792L12.7215 7.20605C14.1893 7.15576 15.9131 7.15556 18 7.15556V3.95556ZM12.6119 4.00792C9.27802 4.12215 6.75651 4.48181 4.72367 5.95876L6.60459 8.54761C7.78812 7.68772 9.4271 7.31892 12.7215 7.20605L12.6119 4.00792ZM24.9333 7.33333V5.60698H21.7333V7.33333H24.9333ZM24.9333 5.60698V2H21.7333V5.60698H24.9333ZM18 7.15556C20.0869 7.15556 21.8107 7.15576 23.2785 7.20605L23.3881 4.00792C21.8538 3.95536 20.0692 3.95556 18 3.95556V7.15556ZM23.2785 7.20605C26.5729 7.31892 28.2119 7.68772 29.3954 8.54761L31.2763 5.95876C29.2435 4.48181 26.722 4.12215 23.3881 4.00792L23.2785 7.20605ZM33.9486 25.2889C32.3899 25.2889 31.4203 25.2852 30.5814 25.418L31.082 28.5786C31.6106 28.4949 32.2726 28.4889 33.9486 28.4889L33.9486 25.2889ZM32.4 21.5556C32.4 23.6425 32.3998 25.3663 32.3495 26.8341L35.5476 26.9437C35.6002 25.4094 35.6 23.6248 35.6 21.5556H32.4ZM32.3495 26.8341C32.2366 30.1285 31.8678 31.7674 31.0079 32.951L33.5968 34.8319C35.0737 32.799 35.4334 30.2775 35.5476 26.9437L32.3495 26.8341ZM24.9333 37.5041C24.9333 35.8281 24.9394 35.1661 25.0231 34.6375L21.8625 34.137C21.7296 34.9759 21.7333 35.9454 21.7333 37.5041L24.9333 37.5041ZM18 39.1556C20.0692 39.1556 21.8538 39.1558 23.3881 39.1032L23.2785 35.9051C21.8107 35.9554 20.0869 35.9556 18 35.9556V39.1556ZM23.3881 39.1032C26.722 38.989 29.2435 38.6293 31.2763 37.1524L29.3954 34.5635C28.2119 35.4234 26.5729 35.7922 23.2785 35.9051L23.3881 39.1032Z" fill="#52587D"/>
<path d="M10.5556 14.7778C10.5556 15.7596 9.75962 16.5556 8.77778 16.5556C7.79594 16.5556 7 15.7596 7 14.7778C7 13.7959 7.79594 13 8.77778 13C9.75962 13 10.5556 13.7959 10.5556 14.7778Z" fill="#52587D"/>
<path d="M10.5556 21.8889C10.5556 22.8707 9.75962 23.6667 8.77778 23.6667C7.79594 23.6667 7 22.8707 7 21.8889C7 20.907 7.79594 20.1111 8.77778 20.1111C9.75962 20.1111 10.5556 20.907 10.5556 21.8889Z" fill="#52587D"/>
<path d="M19.4444 14.7778C19.4444 15.7596 18.6485 16.5556 17.6667 16.5556C16.6848 16.5556 15.8889 15.7596 15.8889 14.7778C15.8889 13.7959 16.6848 13 17.6667 13C18.6485 13 19.4444 13.7959 19.4444 14.7778Z" fill="#52587D"/>
<path d="M19.4444 21.8889C19.4444 22.8707 18.6485 23.6667 17.6667 23.6667C16.6848 23.6667 15.8889 22.8707 15.8889 21.8889C15.8889 20.907 16.6848 20.1111 17.6667 20.1111C18.6485 20.1111 19.4444 20.907 19.4444 21.8889Z" fill="#52587D"/>
<path d="M19.4444 29C19.4444 29.9818 18.6485 30.7778 17.6667 30.7778C16.6848 30.7778 15.8889 29.9818 15.8889 29C15.8889 28.0182 16.6848 27.2222 17.6667 27.2222C18.6485 27.2222 19.4444 28.0182 19.4444 29Z" fill="#52587D"/>
<path d="M28.3333 14.7778C28.3333 15.7596 27.5374 16.5556 26.5556 16.5556C25.5737 16.5556 24.7778 15.7596 24.7778 14.7778C24.7778 13.7959 25.5737 13 26.5556 13C27.5374 13 28.3333 13.7959 28.3333 14.7778Z" fill="#52587D"/>
<path d="M28.3333 21.8889C28.3333 22.8707 27.5374 23.6667 26.5556 23.6667C25.5737 23.6667 24.7778 22.8707 24.7778 21.8889C24.7778 20.907 25.5737 20.1111 26.5556 20.1111C27.5374 20.1111 28.3333 20.907 28.3333 21.8889Z" fill="#52587D"/>
<path d="M10.5556 29C10.5556 29.9818 9.75962 30.7778 8.77778 30.7778C7.79594 30.7778 7 29.9818 7 29C7 28.0182 7.79594 27.2222 8.77778 27.2222C9.75962 27.2222 10.5556 28.0182 10.5556 29Z" fill="#52587D"/>
</svg>
