<svg width="28" height="28" viewBox="0 0 28 28" fill="none" xmlns="http://www.w3.org/2000/svg">
<path d="M20.6667 10L16.1744 15.0176C14.3943 17.0059 13.5043 18 12.3333 18C11.1624 18 10.2723 17.0059 8.49223 15.0176L7.33333 13.7231M14 26C9.00036 26 6.50054 26 4.7481 24.7268C4.18213 24.3156 3.68442 23.8179 3.27322 23.2519C2 21.4995 2 18.9996 2 14C2 9.00036 2 6.50054 3.27322 4.7481C3.68442 4.18213 4.18213 3.68442 4.7481 3.27322C6.50054 2 9.00036 2 14 2C18.9996 2 21.4995 2 23.2519 3.27322C23.8179 3.68442 24.3156 4.18213 24.7268 4.7481C26 6.50054 26 9.00036 26 14C26 18.9996 26 21.4995 24.7268 23.2519C24.3156 23.8179 23.8179 24.3156 23.2519 24.7268C21.4995 26 18.9996 26 14 26Z" stroke="#2AC543" stroke-width="3" stroke-linecap="round"/>
</svg>
