<svg width="36" height="33" viewBox="0 0 36 33" fill="none" xmlns="http://www.w3.org/2000/svg">
<path d="M2.97287 6.23719C2 8.29722 2 11.2385 2 16.4C2 22.3996 2 25.3994 3.52786 27.5023C4.0213 28.1814 4.61856 28.7787 5.29772 29.2721C7.40064 30.8 10.4004 30.8 16.4 30.8H19.6C25.5996 30.8 28.5994 30.8 30.7023 29.2721C31.3814 28.7787 31.9787 28.1814 32.4721 27.5023C34 25.3994 34 22.3996 34 16.4C34 11.202 34 8.25576 33.0064 6.19365M2.97287 6.23719C3.13084 5.90271 3.31444 5.59147 3.52786 5.29772C4.0213 4.61856 4.61856 4.0213 5.29772 3.52786C7.40064 2 10.4004 2 16.4 2H19.6C25.5996 2 28.5994 2 30.7023 3.52786C31.3814 4.0213 31.9787 4.61856 32.4721 5.29772C32.6763 5.57868 32.8531 5.87565 33.0064 6.19365M2.97287 6.23719L3.6 6.8L6.68629 9.88629C12.0196 15.2196 14.6863 17.8863 18 17.8863C21.3137 17.8863 23.9804 15.2196 29.3137 9.8863L32.4 6.8L33.0064 6.19365" stroke="#52587D" stroke-width="3.2"/>
</svg>
