<svg width="28" height="28" viewBox="0 0 28 28" fill="none" xmlns="http://www.w3.org/2000/svg">
<path d="M4.7481 24.7268L5.62978 23.5133L4.7481 24.7268ZM3.27322 23.2519L4.48675 22.3702L3.27322 23.2519ZM24.7268 23.2519L23.5133 22.3702L24.7268 23.2519ZM23.2519 24.7268L22.3702 23.5133L23.2519 24.7268ZM23.2519 3.27322L22.3702 4.48675L23.2519 3.27322ZM24.7268 4.7481L23.5133 5.62978L24.7268 4.7481ZM4.7481 3.27322L5.62978 4.48675L4.7481 3.27322ZM3.27322 4.7481L4.48675 5.62978L3.27322 4.7481ZM12.2322 10.4344C11.6464 9.84865 10.6967 9.84865 10.1109 10.4344C9.52513 11.0202 9.52513 11.97 10.1109 12.5558L12.2322 10.4344ZM15.7678 18.2126C16.3536 18.7984 17.3033 18.7984 17.8891 18.2126C18.4749 17.6268 18.4749 16.6771 17.8891 16.0913L15.7678 18.2126ZM10.1109 16.0913C9.52513 16.6771 9.52513 17.6268 10.1109 18.2126C10.6967 18.7984 11.6464 18.7984 12.2322 18.2126L10.1109 16.0913ZM17.8891 12.5558C18.4749 11.97 18.4749 11.0202 17.8891 10.4344C17.3033 9.84865 16.3536 9.84865 15.7678 10.4344L17.8891 12.5558ZM14 24.5C11.4668 24.5 9.68733 24.4979 8.31792 24.3496C6.97658 24.2043 6.20768 23.9331 5.62978 23.5133L3.86642 25.9403C5.04096 26.7937 6.39819 27.1591 7.99478 27.3321C9.5633 27.5021 11.5336 27.5 14 27.5V24.5ZM0.5 14C0.5 16.4664 0.497941 18.4367 0.667879 20.0052C0.840859 21.6018 1.20634 22.959 2.05969 24.1336L4.48675 22.3702C4.06688 21.7923 3.79575 21.0234 3.65043 19.6821C3.50206 18.3127 3.5 16.5332 3.5 14H0.5ZM5.62978 23.5133C5.19116 23.1946 4.80542 22.8088 4.48675 22.3702L2.05969 24.1336C2.56341 24.8269 3.17311 25.4366 3.86642 25.9403L5.62978 23.5133ZM24.5 14C24.5 16.5332 24.4979 18.3127 24.3496 19.6821C24.2043 21.0234 23.9331 21.7923 23.5133 22.3702L25.9403 24.1336C26.7937 22.959 27.1591 21.6018 27.3321 20.0052C27.5021 18.4367 27.5 16.4664 27.5 14H24.5ZM14 27.5C16.4664 27.5 18.4367 27.5021 20.0052 27.3321C21.6018 27.1591 22.959 26.7937 24.1336 25.9403L22.3702 23.5133C21.7923 23.9331 21.0234 24.2043 19.6821 24.3496C18.3127 24.4979 16.5332 24.5 14 24.5V27.5ZM23.5133 22.3702C23.1946 22.8088 22.8088 23.1946 22.3702 23.5133L24.1336 25.9403C24.8269 25.4366 25.4366 24.8269 25.9403 24.1336L23.5133 22.3702ZM14 3.5C16.5332 3.5 18.3127 3.50206 19.6821 3.65043C21.0234 3.79575 21.7923 4.06688 22.3702 4.48675L24.1336 2.05969C22.959 1.20634 21.6018 0.840859 20.0052 0.667879C18.4367 0.497941 16.4664 0.5 14 0.5V3.5ZM27.5 14C27.5 11.5336 27.5021 9.5633 27.3321 7.99478C27.1591 6.39819 26.7937 5.04096 25.9403 3.86642L23.5133 5.62978C23.9331 6.20768 24.2043 6.97658 24.3496 8.31792C24.4979 9.68733 24.5 11.4668 24.5 14H27.5ZM22.3702 4.48675C22.8088 4.80542 23.1946 5.19116 23.5133 5.62978L25.9403 3.86642C25.4366 3.17311 24.8269 2.56341 24.1336 2.05969L22.3702 4.48675ZM14 0.5C11.5336 0.5 9.5633 0.497941 7.99478 0.667879C6.39819 0.840859 5.04096 1.20634 3.86642 2.05969L5.62978 4.48675C6.20768 4.06688 6.97658 3.79575 8.31792 3.65043C9.68733 3.50206 11.4668 3.5 14 3.5V0.5ZM3.5 14C3.5 11.4668 3.50206 9.68733 3.65043 8.31792C3.79575 6.97658 4.06688 6.20768 4.48675 5.62978L2.05969 3.86642C1.20634 5.04096 0.840859 6.39819 0.667879 7.99478C0.497941 9.5633 0.5 11.5336 0.5 14H3.5ZM3.86642 2.05969C3.17311 2.56341 2.56341 3.17311 2.05969 3.86642L4.48675 5.62978C4.80542 5.19115 5.19115 4.80542 5.62978 4.48675L3.86642 2.05969ZM10.1109 12.5558L15.7678 18.2126L17.8891 16.0913L12.2322 10.4344L10.1109 12.5558ZM12.2322 18.2126L17.8891 12.5558L15.7678 10.4344L10.1109 16.0913L12.2322 18.2126Z" fill="#E83366"/>
</svg>
