<svg width="26" height="22" viewBox="0 0 26 22" fill="none" xmlns="http://www.w3.org/2000/svg">
<path d="M13 13.2C12.4477 13.2 12 13.6477 12 14.2C12 14.7523 12.4477 15.2 13 15.2V13.2ZM17.6 10.6C17.6 10.0477 17.1523 9.6 16.6 9.6C16.0477 9.6 15.6 10.0477 15.6 10.6H17.6ZM2.4648 8.35048L1.65246 7.7673L1.65246 7.7673L2.4648 8.35048ZM2.46454 12.8492L3.27689 12.266L3.27689 12.266L2.46454 12.8492ZM5.54557 16.4714L6.29616 15.8106L6.27082 15.7818L6.24334 15.7551L5.54557 16.4714ZM20.3212 4.6L19.6297 5.32232L19.6581 5.34951L19.6885 5.37439L20.3212 4.6ZM1.4043 10.6L0.404299 10.6L1.4043 10.6ZM23.5352 12.8495L24.3475 13.4327L24.3475 13.4327L23.5352 12.8495ZM23.5351 8.35038L22.7228 8.93356L22.7228 8.93357L23.5351 8.35038ZM23.1518 6.20563C22.8023 5.778 22.1724 5.71465 21.7447 6.06414C21.3171 6.41363 21.2537 7.04362 21.6032 7.47126L23.1518 6.20563ZM8.18338 17.3974C7.73481 17.0752 7.10999 17.1777 6.7878 17.6262C6.46561 18.0748 6.56806 18.6996 7.01662 19.0218L8.18338 17.3974ZM24.5957 10.6L23.5957 10.6L24.5957 10.6ZM0.375305 19.4191C-0.055957 19.7641 -0.125878 20.3934 0.219131 20.8247C0.564141 21.256 1.19343 21.3259 1.6247 20.9809L0.375305 19.4191ZM25.6247 1.78087C26.056 1.43586 26.1259 0.806567 25.7809 0.375305C25.4359 -0.055957 24.8066 -0.125878 24.3753 0.219131L25.6247 1.78087ZM20.4097 4.67226L21.0344 5.45312L21.0344 5.45312L20.4097 4.67226ZM5.59318 16.5255L6.21787 17.3063L6.21787 17.3063L5.59318 16.5255ZM13 6C10.4595 6 8.4 8.05949 8.4 10.6H10.4C10.4 9.16406 11.5641 8 13 8V6ZM8.4 10.6C8.4 11.6804 8.77369 12.6762 9.39811 13.4614L10.9635 12.2166C10.6103 11.7725 10.4 11.2122 10.4 10.6H8.4ZM16.5909 7.72479C15.7495 6.67505 14.4532 6 13 6V8C13.8207 8 14.5522 8.37909 15.0303 8.97562L16.5909 7.72479ZM13 15.2C15.5405 15.2 17.6 13.1405 17.6 10.6H15.6C15.6 12.0359 14.4359 13.2 13 13.2V15.2ZM13 0C10.3978 0 8.05284 1.28663 6.15872 2.83749C4.25317 4.39771 2.6969 6.31245 1.65246 7.7673L3.27714 8.93366C4.26967 7.55112 5.70897 5.79061 7.42575 4.38495C9.15397 2.96992 11.0581 2 13 2V0ZM1.65219 13.4323C2.44864 14.5418 3.53776 15.9116 4.84779 17.1877L6.24334 15.7551C5.04247 14.5853 4.02896 13.3136 3.27689 12.266L1.65219 13.4323ZM21.0128 3.87768C18.928 1.88163 16.1481 0 13 0V2C15.3642 2 17.6626 3.43901 19.6297 5.32232L21.0128 3.87768ZM1.65246 7.7673C0.991847 8.6875 0.404308 9.44764 0.404299 10.6L2.4043 10.6C2.4043 10.2078 2.52376 9.98309 3.27714 8.93366L1.65246 7.7673ZM3.27689 12.266C2.5237 11.2168 2.4043 10.9922 2.4043 10.6L0.404299 10.6C0.404291 11.7523 0.991713 12.5123 1.65219 13.4323L3.27689 12.266ZM13 21.2C15.6022 21.2 17.9472 19.9134 19.8413 18.3625C21.7468 16.8023 23.3031 14.8876 24.3475 13.4327L22.7229 12.2663C21.7303 13.6489 20.291 15.4094 18.5743 16.8151C16.846 18.2301 14.9419 19.2 13 19.2V21.2ZM24.3475 7.7672C24.0012 7.28488 23.6007 6.75486 23.1518 6.20563L21.6032 7.47126C22.0223 7.98408 22.3975 8.4805 22.7228 8.93356L24.3475 7.7672ZM7.01662 19.0218C8.73566 20.2565 10.7726 21.2 13 21.2V19.2C11.3427 19.2 9.71057 18.4943 8.18338 17.3974L7.01662 19.0218ZM24.3475 13.4327C25.0082 12.5125 25.5957 11.7523 25.5957 10.6L23.5957 10.6C23.5957 10.9922 23.4763 11.2169 22.7229 12.2663L24.3475 13.4327ZM22.7228 8.93357C23.4762 9.98308 23.5957 10.2078 23.5957 10.6L25.5957 10.6C25.5957 9.44765 25.0081 8.68746 24.3475 7.7672L22.7228 8.93357ZM21.0344 5.45312L25.6247 1.78087L24.3753 0.219131L19.785 3.89139L21.0344 5.45312ZM19.6885 5.37439L19.777 5.44665L21.0424 3.89787L20.954 3.82561L19.6885 5.37439ZM1.6247 20.9809L6.21787 17.3063L4.96848 15.7446L0.375305 19.4191L1.6247 20.9809ZM6.21787 17.3063L21.0344 5.45312L19.785 3.89139L4.96848 15.7446L6.21787 17.3063ZM4.79498 17.1321L4.84259 17.1862L6.34377 15.8647L6.29616 15.8106L4.79498 17.1321Z" fill="#52587D"/>
</svg>
