<svg width="38" height="35" viewBox="0 0 38 35" fill="none" xmlns="http://www.w3.org/2000/svg">
<path d="M20.3344 21.8608L23.6447 16.5038C25.4729 13.5452 24.2194 9.66472 20.8449 7.83651C17.4704 6.00831 13.2528 6.92467 11.4246 9.88328L3.14896 23.2758C1.32075 26.2344 2.57426 30.1149 5.94875 31.9431C7.49833 32.7826 9.22569 33.0434 10.8178 32.7934C11.7949 32.64 12.7211 32.2943 13.524 31.7719M17.5347 13.1935L14.2244 18.5506C12.3962 21.5092 13.6497 25.3896 17.0242 27.2178C20.3987 29.046 24.6163 28.1297 26.4445 25.1711L34.7201 11.7785C36.5483 8.81992 35.2948 4.93944 31.9203 3.11124C30.3708 2.27172 28.6434 2.01094 27.0513 2.2609C26.0742 2.4143 25.148 2.76005 24.3451 3.28244" stroke="#52587D" stroke-width="3.2" stroke-linecap="round"/>
</svg>
