<svg width="26" height="26" viewBox="0 0 26 26" fill="none" xmlns="http://www.w3.org/2000/svg">
<path d="M2.07524 7.15512L0.593705 6.92047L0.593705 6.92047L2.07524 7.15512ZM7.15512 2.07524L6.92047 0.593705L6.92047 0.593705L7.15512 2.07524ZM7.15512 23.9248L6.92047 25.4063L6.92047 25.4063L7.15512 23.9248ZM2.07524 18.8449L0.593704 19.0795L0.593705 19.0795L2.07524 18.8449ZM15.1231 23.9776C15.7855 23.48 15.9191 22.5397 15.4216 21.8774C14.924 21.215 13.9837 21.0813 13.3214 21.5789L15.1231 23.9776ZM13.3214 4.42112C13.9837 4.91866 14.924 4.78502 15.4216 4.12264C15.9191 3.46026 15.7855 2.51996 15.1231 2.02243L13.3214 4.42112ZM6.88889 11.5C6.06046 11.5 5.38889 12.1716 5.38889 13C5.38889 13.8284 6.06046 14.5 6.88889 14.5L6.88889 11.5ZM22.7778 13L22.7778 14.5H22.7778V13ZM20.0431 6.93574C19.3939 6.42105 18.4504 6.53003 17.9357 7.17917C17.421 7.82831 17.53 8.77178 18.1792 9.28648L20.0431 6.93574ZM21.2659 9.81959L22.1978 8.64422L22.1978 8.64422L21.2659 9.81959ZM21.2659 16.1804L20.3339 15.005L20.3339 15.005L21.2659 16.1804ZM18.1792 16.7135C17.53 17.2282 17.421 18.1717 17.9357 18.8208C18.4504 19.47 19.3939 19.579 20.043 19.0643L18.1792 16.7135ZM23.9757 12.6936L25.457 12.4576L25.457 12.4576L23.9757 12.6936ZM23.9757 13.3064L25.457 13.5424L25.457 13.5424L23.9757 13.3064ZM10.5556 22.5H9.33333V25.5H10.5556V22.5ZM3.5 16.6667V9.33333H0.5V16.6667H3.5ZM9.33333 3.5H10.5556V0.5H9.33333V3.5ZM3.5 9.33333C3.5 8.14056 3.50466 7.71882 3.55677 7.38977L0.593705 6.92047C0.495345 7.54149 0.5 8.2552 0.5 9.33333H3.5ZM9.33333 0.5C8.2552 0.5 7.5415 0.495345 6.92047 0.593705L7.38977 3.55677C7.71882 3.50466 8.14056 3.5 9.33333 3.5V0.5ZM3.55677 7.38977C3.86927 5.41671 5.41671 3.86927 7.38977 3.55677L6.92047 0.593705C3.66373 1.10952 1.10952 3.66373 0.593705 6.92047L3.55677 7.38977ZM9.33333 22.5C8.14056 22.5 7.71882 22.4953 7.38977 22.4432L6.92047 25.4063C7.54149 25.5047 8.2552 25.5 9.33333 25.5V22.5ZM0.5 16.6667C0.5 17.7448 0.495345 18.4585 0.593704 19.0795L3.55677 18.6102C3.50466 18.2812 3.5 17.8594 3.5 16.6667H0.5ZM7.38977 22.4432C5.41671 22.1307 3.86927 20.5833 3.55677 18.6102L0.593705 19.0795C1.10952 22.3363 3.66373 24.8905 6.92047 25.4063L7.38977 22.4432ZM10.5556 25.5C12.2673 25.5 13.8509 24.9332 15.1231 23.9776L13.3214 21.5789C12.5508 22.1576 11.5953 22.5 10.5556 22.5V25.5ZM10.5556 3.5C11.5953 3.5 12.5508 3.84236 13.3214 4.42112L15.1231 2.02243C13.8509 1.06684 12.2673 0.5 10.5556 0.5V3.5ZM6.88889 14.5L22.7778 14.5L22.7778 11.5L6.88889 11.5L6.88889 14.5ZM18.1792 9.28648L20.3339 10.995L22.1978 8.64422L20.0431 6.93574L18.1792 9.28648ZM20.3339 15.005L18.1792 16.7135L20.043 19.0643L22.1978 17.3558L20.3339 15.005ZM20.3339 10.995C21.2218 11.699 21.7854 12.1488 22.1569 12.5189C22.5217 12.8823 22.5026 12.9815 22.4944 12.9296L25.457 12.4576C25.3165 11.5755 24.8016 10.9189 24.2742 10.3935C23.7534 9.87474 23.0283 9.3027 22.1978 8.64422L20.3339 10.995ZM22.1978 17.3558C23.0283 16.6973 23.7534 16.1253 24.2742 15.6065C24.8016 15.0811 25.3165 14.4245 25.457 13.5424L22.4944 13.0704C22.5026 13.0185 22.5217 13.1177 22.1569 13.4811C21.7854 13.8512 21.2218 14.301 20.3339 15.005L22.1978 17.3558ZM22.4944 12.9296C22.4982 12.9536 22.5 12.977 22.5 13H25.5C25.5 12.8183 25.4856 12.6371 25.457 12.4576L22.4944 12.9296ZM22.5 13C22.5 13.023 22.4982 13.0464 22.4944 13.0704L25.457 13.5424C25.4856 13.3629 25.5 13.1817 25.5 13H22.5ZM22.7778 14.5H24V11.5H22.7778V14.5Z" fill="#F5FBFF"/>
</svg>
