<svg width="36" height="36" viewBox="0 0 36 36" fill="none" xmlns="http://www.w3.org/2000/svg">
<path d="M5.66413 32.3024L6.60459 31.0079L5.66413 32.3024ZM3.69763 30.3359L4.99205 29.3954L3.69763 30.3359ZM32.3024 30.3359L31.0079 29.3954L32.3024 30.3359ZM30.3359 32.3024L29.3954 31.0079L30.3359 32.3024ZM30.3359 3.69763L29.3954 4.99205L30.3359 3.69763ZM32.3024 5.66413L31.0079 6.60459L32.3024 5.66413ZM5.66413 3.69763L6.60459 4.99205L5.66413 3.69763ZM3.69763 5.66413L4.99205 6.60459L3.69763 5.66413ZM25.4578 20.84C25.0626 21.6304 25.383 22.5915 26.1733 22.9866C26.9637 23.3818 27.9248 23.0615 28.32 22.2711L25.4578 20.84ZM20.1245 20.84C19.7293 21.6304 20.0497 22.5915 20.84 22.9866C21.6304 23.3818 22.5915 23.0615 22.9866 22.2711L20.1245 20.84ZM21.6494 21.3679L20.2183 20.6523L20.2183 20.6523L21.6494 21.3679ZM21.6494 18.1877L23.0805 17.4721L23.0805 17.4721L21.6494 18.1877ZM22.9866 17.2845C22.5915 16.4941 21.6304 16.1737 20.84 16.5689C20.0496 16.9641 19.7293 17.9252 20.1245 18.7155L22.9866 17.2845ZM18 32.4C14.6313 32.4 12.2332 32.3978 10.3808 32.1971C8.55832 31.9997 7.45467 31.6256 6.60459 31.0079L4.72367 33.5968C6.21017 34.6768 7.94137 35.1515 10.0361 35.3785C12.1009 35.6022 14.7025 35.6 18 35.6V32.4ZM0.4 18C0.4 21.2975 0.397804 23.8991 0.621512 25.9639C0.848465 28.0586 1.32319 29.7898 2.4032 31.2763L4.99205 29.3954C4.37443 28.5453 4.00035 27.4417 3.80289 25.6192C3.6022 23.7668 3.6 21.3687 3.6 18H0.4ZM6.60459 31.0079C5.9858 30.5584 5.44163 30.0142 4.99205 29.3954L2.4032 31.2763C3.05015 32.1668 3.83322 32.9499 4.72367 33.5968L6.60459 31.0079ZM32.4 18C32.4 21.3687 32.3978 23.7668 32.1971 25.6192C31.9997 27.4417 31.6256 28.5453 31.0079 29.3954L33.5968 31.2763C34.6768 29.7898 35.1515 28.0586 35.3785 25.9639C35.6022 23.8991 35.6 21.2975 35.6 18H32.4ZM18 35.6C21.2975 35.6 23.8991 35.6022 25.9639 35.3785C28.0586 35.1515 29.7898 34.6768 31.2763 33.5968L29.3954 31.0079C28.5453 31.6256 27.4417 31.9997 25.6192 32.1971C23.7668 32.3978 21.3687 32.4 18 32.4V35.6ZM31.0079 29.3954C30.5584 30.0142 30.0142 30.5584 29.3954 31.0079L31.2763 33.5968C32.1668 32.9499 32.9499 32.1668 33.5968 31.2763L31.0079 29.3954ZM18 3.6C21.3687 3.6 23.7668 3.6022 25.6192 3.80289C27.4417 4.00035 28.5453 4.37443 29.3954 4.99205L31.2763 2.4032C29.7898 1.32319 28.0586 0.848465 25.9639 0.621512C23.8991 0.397804 21.2975 0.4 18 0.4V3.6ZM35.6 18C35.6 14.7025 35.6022 12.1009 35.3785 10.0361C35.1515 7.94137 34.6768 6.21017 33.5968 4.72367L31.0079 6.60459C31.6256 7.45467 31.9997 8.55832 32.1971 10.3808C32.3978 12.2332 32.4 14.6313 32.4 18H35.6ZM29.3954 4.99205C30.0142 5.44163 30.5584 5.9858 31.0079 6.60459L33.5968 4.72367C32.9499 3.83322 32.1668 3.05015 31.2763 2.4032L29.3954 4.99205ZM18 0.4C14.7025 0.4 12.1009 0.397804 10.0361 0.621512C7.94137 0.848465 6.21017 1.32319 4.72367 2.4032L6.60459 4.99205C7.45467 4.37443 8.55832 4.00035 10.3808 3.80289C12.2332 3.6022 14.6313 3.6 18 3.6V0.4ZM3.6 18C3.6 14.6313 3.6022 12.2332 3.80289 10.3808C4.00035 8.55832 4.37443 7.45467 4.99205 6.60459L2.4032 4.72367C1.32319 6.21017 0.848465 7.94137 0.621512 10.0361C0.397804 12.1009 0.4 14.7025 0.4 18H3.6ZM4.72367 2.4032C3.83322 3.05015 3.05015 3.83322 2.4032 4.72367L4.99205 6.60459C5.44163 5.9858 5.9858 5.44163 6.60459 4.99205L4.72367 2.4032ZM14.6222 18C14.6222 19.08 13.7467 19.9556 12.6667 19.9556V23.1556C15.514 23.1556 17.8222 20.8473 17.8222 18H14.6222ZM12.6667 19.9556C11.5866 19.9556 10.7111 19.08 10.7111 18H7.51111C7.51111 20.8473 9.81933 23.1556 12.6667 23.1556V19.9556ZM10.7111 18C10.7111 16.92 11.5866 16.0444 12.6667 16.0444V12.8444C9.81933 12.8444 7.51111 15.1527 7.51111 18H10.7111ZM12.6667 16.0444C13.7467 16.0444 14.6222 16.92 14.6222 18H17.8222C17.8222 15.1527 15.514 12.8444 12.6667 12.8444V16.0444ZM16.2222 19.6H26.679V16.4H16.2222V19.6ZM28.32 22.2711L28.4138 22.0834L25.5516 20.6523L25.4578 20.84L28.32 22.2711ZM28.4138 22.0834C29.1395 20.632 29.1395 18.9236 28.4138 17.4721L25.5516 18.9032C25.8269 19.4538 25.8269 20.1018 25.5516 20.6523L28.4138 22.0834ZM22.9866 22.2711L23.0805 22.0834L20.2183 20.6523L20.1245 20.84L22.9866 22.2711ZM23.0805 17.4721L22.9866 17.2845L20.1245 18.7155L20.2183 18.9032L23.0805 17.4721ZM23.0805 22.0834C23.8062 20.632 23.8062 18.9236 23.0805 17.4721L20.2183 18.9032C20.4936 19.4538 20.4936 20.1018 20.2183 20.6523L23.0805 22.0834ZM26.679 19.6C26.2016 19.6 25.7652 19.3303 25.5516 18.9032L28.4138 17.4721C28.0853 16.8151 27.4137 16.4 26.679 16.4V19.6Z" fill="#52587D"/>
</svg>
