<svg width="26" height="22" viewBox="0 0 26 22" fill="none" xmlns="http://www.w3.org/2000/svg">
<path d="M23.9025 13.2627L24.7149 13.8458L23.9025 13.2627ZM23.9025 8.60676L23.0902 9.18994L23.9025 8.60676ZM2.09749 13.2627L2.90983 12.6795L2.09749 13.2627ZM2.09749 8.60676L1.28514 8.02358L2.09749 8.60676ZM1 10.9347L0 10.9347L1 10.9347ZM1.28514 13.8458C2.36509 15.3502 3.97358 17.329 5.94228 18.9409C7.89955 20.5435 10.3186 21.8694 13 21.8694V19.8694C10.9789 19.8694 9.00068 18.8602 7.20931 17.3934C5.42938 15.9361 3.93787 14.1115 2.90983 12.6795L1.28514 13.8458ZM13 21.8694C15.6814 21.8694 18.1005 20.5435 20.0577 18.9409C22.0264 17.329 23.6349 15.3502 24.7149 13.8458L23.0902 12.6795C22.0621 14.1115 20.5706 15.9361 18.7907 17.3934C16.9993 18.8602 15.0211 19.8694 13 19.8694V21.8694ZM24.7149 8.02358C23.6349 6.51926 22.0264 4.54046 20.0577 2.92853C18.1005 1.32596 15.6814 0 13 0V2C15.0211 2 16.9993 3.00925 18.7907 4.47599C20.5706 5.93336 22.0621 7.75793 23.0902 9.18994L24.7149 8.02358ZM13 0C10.3186 0 7.89955 1.32596 5.94228 2.92853C3.97358 4.54046 2.36509 6.51926 1.28514 8.02358L2.90983 9.18994C3.93787 7.75793 5.42938 5.93336 7.20931 4.47599C9.00068 3.00925 10.9789 2 13 2V0ZM24.7149 13.8458C25.4001 12.8913 26 12.114 26 10.9347L24 10.9347C24 11.3539 23.8682 11.5957 23.0902 12.6795L24.7149 13.8458ZM23.0902 9.18994C23.8682 10.2737 24 10.5156 24 10.9347L26 10.9347C26 9.75545 25.4001 8.97813 24.7149 8.02358L23.0902 9.18994ZM2.90983 12.6795C2.13178 11.5957 2 11.3539 2 10.9347L0 10.9347C1.70286e-08 12.114 0.599874 12.8913 1.28514 13.8458L2.90983 12.6795ZM1.28514 8.02358C0.599874 8.97813 -1.70286e-08 9.75545 0 10.9347L2 10.9347C2 10.5156 2.13178 10.2737 2.90983 9.18994L1.28514 8.02358ZM8.27448 10.9347C8.27448 13.5445 10.3902 15.6602 13 15.6602V13.6602C11.4947 13.6602 10.2745 12.44 10.2745 10.9347H8.27448ZM13 15.6602C15.6098 15.6602 17.7255 13.5445 17.7255 10.9347H15.7255C15.7255 12.44 14.5053 13.6602 13 13.6602V15.6602ZM17.7255 10.9347C17.7255 8.32488 15.6098 6.20919 13 6.20919V8.20919C14.5053 8.20919 15.7255 9.42945 15.7255 10.9347H17.7255ZM13 6.20919C10.3902 6.20919 8.27448 8.32488 8.27448 10.9347H10.2745C10.2745 9.42945 11.4947 8.20919 13 8.20919V6.20919Z" fill="#52587D"/>
</svg>
