<svg width="54" height="50" viewBox="0 0 54 50" fill="none" xmlns="http://www.w3.org/2000/svg">
<path d="M28.9999 31.1909L33.7288 23.538C36.3405 19.3115 34.5498 13.7679 29.7291 11.1562C24.9084 8.54448 18.8832 9.85358 16.2715 14.0802L4.44918 33.2124C1.83746 37.4389 3.62818 42.9825 8.44888 45.5942C10.6626 46.7935 13.1302 47.166 15.4047 46.809C16.8006 46.5898 18.1237 46.0959 19.2706 45.3496M25.0002 18.8091L20.2712 26.462C17.6595 30.6885 19.4502 36.2321 24.2709 38.8438C29.0916 41.4555 35.1168 40.1464 37.7285 35.9199L49.5509 16.7876C52.1626 12.5611 50.3719 7.01754 45.5512 4.40582C43.3375 3.2065 40.8698 2.83397 38.5953 3.19105C37.1995 3.41019 35.8764 3.90412 34.7294 4.65039" stroke="url(#paint0_linear_7_14)" stroke-width="6" stroke-linecap="round"/>
<defs>
<linearGradient id="paint0_linear_7_14" x1="33.4705" y1="0.851857" x2="20.5295" y2="49.1482" gradientUnits="userSpaceOnUse">
<stop stop-color="#2162E0"/>
<stop offset="1" stop-color="#FF0000"/>
</linearGradient>
</defs>
</svg>
