<svg id="visual" viewBox="0 0 900 600" width="900" height="600" xmlns="http://www.w3.org/2000/svg" xmlns:xlink="http://www.w3.org/1999/xlink" version="1.1"><g transform="translate(401.65525566613593 321.4866449428915)"><path d="M150.7 -266C176.4 -246.2 165.3 -167.6 188.7 -113.5C212.1 -59.3 270.1 -29.7 281 6.3C292 42.3 256 84.7 218.1 113.7C180.1 142.7 140.3 158.4 103.7 179.7C67 201 33.5 228 -0.2 228.5C-34 228.9 -68 202.8 -100.6 179.1C-133.2 155.4 -164.5 134.2 -178 104.8C-191.5 75.3 -187.2 37.7 -174.9 7.1C-162.6 -23.4 -142.2 -46.9 -132.6 -83.1C-123 -119.3 -124.3 -168.4 -104 -191.3C-83.7 -214.2 -41.8 -211.1 10.3 -229C62.5 -246.9 125 -285.8 150.7 -266" fill="#FFF"></path></g></svg>