<svg width="641" height="525" viewBox="0 0 641 525" fill="none" xmlns="http://www.w3.org/2000/svg">
<path d="M396.561 12.4286C422.689 32.9216 411.404 114.273 435.194 170.266C458.984 226.363 517.951 256.999 529.033 294.259C540.216 331.519 503.616 375.403 465.084 405.418C426.451 435.433 385.988 451.683 348.778 473.728C311.466 495.774 277.408 523.719 243.146 524.236C208.783 524.65 174.216 497.637 141.073 473.107C107.929 448.578 76.1078 426.636 62.3828 396.207C48.6578 365.674 53.0295 326.758 65.5345 295.087C78.0395 263.52 98.7795 239.197 108.539 201.73C118.299 164.263 116.978 113.445 137.616 89.7431C158.254 66.0416 200.853 69.2501 253.821 50.7236C306.891 32.1971 370.433 -8.06435 396.561 12.4286Z" fill="white"/>
<path d="M342.557 394.364L311.126 379.777L297.911 405.832L329.342 420.418L342.557 394.364Z" fill="#4A5EA3"/>
<path d="M309.502 383.476L274.842 387.656L278.63 416.386L313.289 412.206L309.502 383.476Z" fill="#4A5EA3"/>
<path d="M353.724 396.157H292.208V455H353.724V396.157Z" fill="#D2DCFF"/>
<path d="M292.208 396.157H258.322V455H292.208V396.157Z" fill="#AEC3FF"/>
<path d="M258.322 396.157L240.719 414.194H278.953L292.208 396.157H258.322Z" fill="#86A2E2"/>
<path d="M353.724 396.157L366.287 414.427H304.862L292.208 396.071L353.724 396.157Z" fill="#AEC3FF"/>
<path d="M305.259 384.173L302.784 396.09L309.469 383.665L305.259 384.173Z" fill="#2F3D6C"/>
<path d="M633.008 434.987V430.443C633.008 429.037 631.817 427.897 630.349 427.897H520.109C514.547 427.897 510.038 432.211 510.038 437.531V445.28C510.038 450.6 514.547 454.913 520.109 454.913H630.349C631.818 454.913 633.008 453.774 633.008 452.368V447.823C633.008 446.418 631.817 445.28 630.349 445.28H524.16C521.922 445.28 520.109 443.545 520.109 441.405C520.109 439.264 521.922 437.53 524.16 437.53H630.349C631.817 437.532 633.008 436.393 633.008 434.987Z" fill="#86A2E2"/>
<path d="M631.938 353.94V349.396C631.938 347.991 630.747 346.852 629.277 346.852H519.038C513.476 346.852 508.967 351.165 508.967 356.485V364.234C508.967 369.554 513.476 373.867 519.038 373.867H629.277C630.747 373.867 631.938 372.728 631.938 371.323V366.779C631.938 365.373 630.747 364.234 629.277 364.234H523.089C520.851 364.234 519.038 362.499 519.038 360.359C519.038 358.218 520.851 356.484 523.089 356.484H629.277C630.747 356.485 631.938 355.346 631.938 353.94Z" fill="#D2DCFF"/>
<path d="M625.131 408.972V403.427C625.131 402.022 623.94 400.884 622.471 400.884H527.984C522.422 400.884 517.913 405.197 517.913 410.517V418.265C517.913 423.586 522.422 427.899 527.984 427.899H622.471C623.94 427.899 625.131 426.759 625.131 425.355V420.81C625.131 419.405 623.94 418.265 622.471 418.265H532.035C529.797 418.265 527.984 416.531 527.984 414.391C527.984 412.25 529.797 410.516 532.035 410.516H622.471C623.94 410.516 625.131 409.376 625.131 407.972Z" fill="#AEC3FF"/>
<path d="M641 327.66V323.115C641 321.709 639.809 320.571 638.339 320.571H543.853C538.291 320.571 533.782 324.884 533.782 330.205V337.953C533.782 343.273 538.291 347.586 543.853 347.586H638.339C639.809 347.586 641 346.447 641 345.043V340.498C641 339.092 639.809 337.954 638.339 337.954H547.904C545.666 337.954 543.853 336.22 543.853 334.079C543.853 331.939 545.666 330.205 547.904 330.205H638.339C639.809 330.203 641 329.064 641 327.66Z" fill="#AEC3FF"/>
<path d="M621.629 410.516V418.264H532.035C529.797 418.264 527.984 416.53 527.984 414.389C527.984 412.249 529.797 410.514 532.035 410.514H621.629V410.516Z" fill="#EFF1FA"/>
<path d="M613.716 437.532V445.281H524.122C521.884 445.281 520.071 443.546 520.071 441.406C520.071 439.266 521.884 437.531 524.122 437.531H613.716V437.532Z" fill="#EFF1FA"/>
<path d="M612.646 356.485V364.234H523.052C520.815 364.234 519.001 362.499 519.001 360.359C519.001 358.218 520.815 356.484 523.052 356.484H612.646V356.485Z" fill="#EFF1FA"/>
<path d="M637.497 330.203V337.952H547.903C545.666 337.952 543.853 336.217 543.853 334.077C543.853 331.937 545.666 330.202 547.903 330.202H637.497V330.203Z" fill="#EFF1FA"/>
<path d="M641 380.955V376.411C641 375.005 639.809 373.866 638.339 373.866H543.853C538.291 373.866 533.782 378.179 533.782 383.499V391.248C533.782 396.568 538.291 400.881 543.853 400.881H638.339C639.809 400.881 641 399.742 641 398.337V393.793C641 392.387 639.809 391.249 638.339 391.249H547.904C545.666 391.249 543.853 389.514 543.853 387.374C543.853 385.234 545.666 383.499 547.904 383.499H638.339C639.809 383.5 641 382.361 641 380.955Z" fill="#86A2E2"/>
<path d="M637.497 383.5V391.249H547.903C545.666 391.249 543.853 389.514 543.853 387.374C543.853 385.234 545.666 383.499 547.903 383.499H637.497V383.5Z" fill="#EFF1FA"/>
<path d="M590.612 307.043H606.844C607.645 307.043 608.266 307.712 608.171 308.472L606.797 319.444C606.717 320.087 606.148 320.57 605.471 320.57H591.986C591.31 320.57 590.74 320.087 590.659 319.444L589.286 308.472C589.191 307.713 589.812 307.043 590.612 307.043Z" fill="#D2DCFF"/>
<path d="M604.3 302.567V297.578L601.18 303.249V294.038L598.727 299.838L596.276 294.038V303.249L593.156 297.578V302.567L588.608 295.573L590.613 307.043H598.727H606.843L608.846 295.573L604.3 302.567Z" fill="#6277D7"/>
<path d="M408.04 285.251H204.589C198.864 285.251 194.224 280.812 194.224 275.336V90.0493C194.224 84.5733 198.864 80.1342 204.589 80.1342H408.04C413.764 80.1342 418.405 84.5733 418.405 90.0493V275.336C418.405 280.812 413.764 285.251 408.04 285.251Z" fill="#6277D7"/>
<path d="M321.778 109.824H225.245C223.527 109.824 222.134 108.492 222.134 106.848C222.134 105.205 223.527 103.873 225.245 103.873H321.778C323.496 103.873 324.889 105.205 324.889 106.848C324.889 108.492 323.496 109.824 321.778 109.824Z" fill="#E1E9FF"/>
<path d="M290.745 124.671H225.245C223.527 124.671 222.134 123.339 222.134 121.695C222.134 120.052 223.527 118.719 225.245 118.719H290.745C292.463 118.719 293.856 120.052 293.856 121.695C293.856 123.339 292.463 124.671 290.745 124.671Z" fill="#E1E9FF"/>
<path d="M241.607 148.997H224.356C223.129 148.997 222.134 148.045 222.134 146.871C222.134 145.697 223.129 144.746 224.356 144.746H241.607C242.835 144.746 243.829 145.697 243.829 146.871C243.829 148.044 242.835 148.997 241.607 148.997Z" fill="#89AEFF"/>
<path d="M249.115 217.315V270.356C249.115 271.53 248.121 272.481 246.893 272.481H237.916C236.688 272.481 235.694 271.53 235.694 270.356V217.315C235.694 216.141 236.688 215.189 237.916 215.189H246.893C248.121 215.189 249.115 216.141 249.115 217.315Z" fill="#89AEFF"/>
<path d="M273.512 196.005V270.356C273.512 271.53 272.518 272.481 271.29 272.481H262.313C261.085 272.481 260.091 271.53 260.091 270.356V196.005C260.091 194.831 261.085 193.879 262.313 193.879H271.29C272.518 193.879 273.512 194.832 273.512 196.005Z" fill="#89AEFF"/>
<path d="M302.893 217.315V270.356C302.893 271.53 301.899 272.481 300.672 272.481H291.694C290.466 272.481 289.472 271.53 289.472 270.356V217.315C289.472 216.141 290.466 215.189 291.694 215.189H300.672C301.899 215.189 302.893 216.141 302.893 217.315Z" fill="#89AEFF"/>
<path d="M327.289 196.005V270.356C327.289 271.53 326.295 272.481 325.067 272.481H316.09C314.862 272.481 313.868 271.53 313.868 270.356V196.005C313.868 194.831 314.862 193.879 316.09 193.879H325.067C326.295 193.879 327.289 194.832 327.289 196.005Z" fill="#89AEFF"/>
<path d="M356.671 232.847V270.356C356.671 271.53 355.676 272.481 354.449 272.481H345.471C344.244 272.481 343.249 271.53 343.249 270.356V232.847C343.249 231.672 344.244 230.721 345.471 230.721H354.449C355.676 230.722 356.671 231.674 356.671 232.847Z" fill="#89AEFF"/>
<path d="M381.068 217.315V270.356C381.068 271.53 380.073 272.481 378.846 272.481H369.868C368.641 272.481 367.646 271.53 367.646 270.356V217.315C367.646 216.141 368.641 215.189 369.868 215.189H378.846C380.072 215.189 381.068 216.141 381.068 217.315Z" fill="#89AEFF"/>
<path d="M249.115 236.904V270.354C249.115 271.529 248.121 272.48 246.893 272.48H237.916C236.688 272.48 235.694 271.529 235.694 270.354V236.904C235.694 235.73 236.688 234.779 237.916 234.779H246.893C248.121 234.78 249.115 235.732 249.115 236.904Z" fill="#D2DCFF"/>
<path d="M273.512 222.882V270.356C273.512 271.53 272.518 272.481 271.29 272.481H262.313C261.085 272.481 260.091 271.53 260.091 270.356V222.882C260.091 221.708 261.085 220.757 262.313 220.757H271.29C272.518 220.757 273.512 221.708 273.512 222.882Z" fill="#D2DCFF"/>
<path d="M302.893 236.904V270.354C302.893 271.529 301.899 272.48 300.672 272.48H291.694C290.466 272.48 289.472 271.529 289.472 270.354V236.904C289.472 235.73 290.466 234.779 291.694 234.779H300.672C301.899 234.78 302.893 235.732 302.893 236.904Z" fill="#D2DCFF"/>
<path d="M327.289 222.882V270.356C327.289 271.53 326.295 272.481 325.067 272.481H316.09C314.862 272.481 313.868 271.53 313.868 270.356V222.882C313.868 221.708 314.862 220.757 316.09 220.757H325.067C326.295 220.757 327.289 221.708 327.289 222.882Z" fill="#D2DCFF"/>
<path d="M356.671 247.126V270.354C356.671 271.529 355.676 272.48 354.449 272.48H345.471C344.244 272.48 343.249 271.529 343.249 270.354V247.126C343.249 245.951 344.244 245 345.471 245H354.449C355.676 245.001 356.671 245.953 356.671 247.126Z" fill="#D2DCFF"/>
<path d="M381.068 236.904V270.354C381.068 271.529 380.073 272.48 378.846 272.48H369.868C368.641 272.48 367.646 271.529 367.646 270.354V236.904C367.646 235.73 368.641 234.779 369.868 234.779H378.846C380.072 234.78 381.068 235.732 381.068 236.904Z" fill="#D2DCFF"/>
<path d="M61.433 313.94C61.433 316.599 59.9178 318.919 57.6698 320.155L57.0073 318.853C55.159 315.221 55.1303 310.998 56.9019 307.358C59.5664 308.454 61.433 310.989 61.433 313.94Z" fill="#F9AFAB"/>
<path d="M141.811 249.195L139.584 245.041C140.193 241.623 140.452 237.907 140.248 233.922C140.202 233.022 140.132 232.109 140.037 231.183C135.391 231.576 121.759 232.098 111.732 226.013C112.471 231.662 110.264 237.923 106.605 243.2C106.161 242.181 104.564 239.031 101.812 239.031C96.3073 239.031 95.4742 247.445 98.5526 251.453C96.427 252.964 94.2012 254.103 91.9961 254.737C91.9961 254.737 91.987 254.728 91.9727 254.715V278.938H113.32V268.383C116.19 269.391 118.739 269.97 120.537 269.97C125.91 269.97 134.054 263.076 138.005 251.263H140.49C141.308 251.263 141.972 250.628 141.972 249.845C141.975 249.618 141.919 249.395 141.811 249.195Z" fill="#FCBEB7"/>
<path d="M98.5526 251.453C95.4742 247.445 96.3073 239.031 101.812 239.031C104.562 239.031 106.16 242.181 106.605 243.2C110.264 237.922 112.471 231.662 111.732 226.013C121.76 232.099 135.391 231.578 140.037 231.183C140.132 232.109 140.202 233.023 140.248 233.922C140.65 233.558 141.593 232.543 141.661 231.014C141.664 231.014 141.665 231.014 141.665 231.014C141.665 230.97 141.665 230.926 141.664 230.883C141.664 230.869 141.665 230.857 141.665 230.843C141.665 230.836 141.664 230.828 141.664 230.819C141.541 222.099 133.195 207.29 112.829 207.29C91.249 207.29 87.2125 220.73 87.2125 220.73C87.2125 220.73 79.7839 224.623 79.7839 232.473C79.7839 242.786 91.4078 254.168 91.9727 254.716C91.987 254.729 91.9961 254.738 91.9961 254.738C94.2012 254.103 96.427 252.964 98.5526 251.453Z" fill="#311643"/>
<path d="M113.321 278.938V268.383C107.395 266.302 100.098 262.386 95.21 257.937L113.321 278.938Z" fill="#F9AFAB"/>
<path d="M116.85 253.778C120.046 253.778 122.637 251.3 122.637 248.242C122.637 245.185 120.046 242.707 116.85 242.707C113.654 242.707 111.063 245.185 111.063 248.242C111.063 251.3 113.654 253.778 116.85 253.778Z" fill="#F49795"/>
<path d="M129.222 256.8C128.059 256.8 127.263 256.378 126.781 255.994C126.179 255.516 125.927 255.002 125.899 254.945C125.778 254.688 125.898 254.386 126.166 254.27C126.433 254.154 126.748 254.268 126.869 254.523C126.902 254.59 127.616 255.981 129.665 255.754C129.957 255.722 130.222 255.922 130.256 256.202C130.29 256.482 130.08 256.735 129.787 256.768C129.591 256.79 129.402 256.8 129.222 256.8Z" fill="#311643"/>
<path d="M132.487 241.46C131.845 241.46 131.325 240.962 131.325 240.348V238.271C131.325 237.658 131.845 237.16 132.487 237.16C133.129 237.16 133.649 237.658 133.649 238.271V240.348C133.649 240.962 133.129 241.46 132.487 241.46Z" fill="#311643"/>
<path d="M140.33 238.8H136.741V232.471C136.741 232.189 136.503 231.961 136.209 231.961C135.914 231.961 135.676 232.189 135.676 232.471V246.149C135.676 246.431 135.914 246.659 136.209 246.659C136.503 246.659 136.741 246.431 136.741 246.149V239.819H140.33C140.624 239.819 140.862 239.591 140.862 239.31C140.862 239.029 140.624 238.8 140.33 238.8Z" fill="white"/>
<path d="M175.614 320.692L115.546 343.073L97.8107 365.654C95.0772 369.134 91.2191 371.583 86.904 372.673L113.185 389.983L163.475 364.672L161.404 426.13H183.964L202.82 342.899C206.249 327.769 190.694 315.074 175.614 320.692Z" fill="#6277D7"/>
<path d="M161.404 434.805V450.053C161.404 451.831 162.911 453.273 164.77 453.273H209.982C210.413 453.273 210.76 452.939 210.76 452.528V449.718C210.76 448.362 209.934 447.131 208.645 446.566L181.795 434.805H161.404V434.805Z" fill="#2F3D6C"/>
<path d="M161.404 426.129V434.805H181.795L183.964 426.129H161.404Z" fill="#FCBEB7"/>
<path d="M140.905 376.031L113.185 389.983L92.509 376.031H140.905Z" fill="#4A5EA3"/>
<path d="M202.267 332.616C200.552 333.712 198.492 334.351 196.277 334.351C190.314 334.351 185.48 329.726 185.48 324.022C185.48 322.451 185.848 320.962 186.504 319.629C193.775 320.865 199.909 325.914 202.267 332.616Z" fill="#4A5EA3"/>
<path d="M64.4008 293.867L57.2403 306.704C55.1316 310.484 55.0444 315.002 57.0061 318.853L57.6217 320.062L63.189 297.985C63.5391 296.593 63.9452 295.219 64.4008 293.867Z" fill="#FCBEB7"/>
<path d="M86.904 372.673C87.0446 372.637 87.1852 372.601 87.3245 372.562C91.469 371.423 95.1657 369.021 97.8107 365.654L115.546 343.073L114.153 297.163L132.029 300.887L139.119 279.489L91.9857 261.706C78.822 268.727 68.9944 280.245 64.4021 293.866C63.9466 295.218 63.5404 296.591 63.1903 297.984L57.6231 320.061L43.9685 374.209L82.287 373.303C83.862 373.266 85.4097 373.05 86.904 372.673Z" fill="#89AEFF"/>
<path d="M114.395 305.16L90.9952 291.072L114.153 297.172L114.395 305.16Z" fill="#4A62D3"/>
<path d="M50.9546 433.249L42.5432 425.399C40.9018 423.866 38.3466 423.682 36.4827 424.959L0.430367 449.683C-0.0330263 450.001 -0.138391 450.617 0.193534 451.059L1.77637 453.172C2.61334 454.289 3.97095 454.94 5.40799 454.914L19.8851 454.647L50.9546 433.249Z" fill="#2F3D6C"/>
<path d="M50.9546 454.645H19.8851L50.9546 433.249V454.645Z" fill="#FCBEB7"/>
<path d="M153.427 416.799L87.3245 372.562C87.1852 372.601 87.0446 372.638 86.904 372.673C85.4097 373.05 83.862 373.266 82.2857 373.303L43.9672 374.209C43.9672 389.968 53.8612 404.183 69.0582 410.262L107.974 425.828L50.9546 433.247V454.644H140.961C162.226 454.645 170.851 428.459 153.427 416.799Z" fill="#6277D7"/>
<path d="M156.725 448.277C153.673 446.452 151.642 443.21 151.642 439.512C151.642 433.87 156.373 429.285 162.246 429.186C163.806 435.96 161.664 443.243 156.725 448.277Z" fill="#4A5EA3"/>
<path d="M235.164 232.888L221.582 228.572C220.777 228.315 219.897 228.388 219.148 228.769L210.75 233.049L208.849 233.445C208.14 233.594 207.554 234.068 207.285 234.711L203.98 242.623L147.667 282.424L139.119 279.491L132.029 300.89L148.555 304.154C152.393 304.913 156.373 303.766 159.135 301.106L211.999 250.191L221.706 244.732C222.6 244.229 223.165 243.324 223.204 242.333L223.243 241.348L223.872 240.768C224.534 240.158 224.872 239.292 224.791 238.417L224.715 237.599C225.422 236.939 225.749 235.992 225.594 235.059L225.457 234.237L234.613 235.262C235.187 235.327 235.734 235.014 235.947 234.5C236.218 233.845 235.86 233.109 235.164 232.888Z" fill="#FCBEB7"/>
<path d="M160.081 300.191L159.134 301.104C156.371 303.763 152.392 304.91 148.554 304.152L147.779 303.999V303.997C148.227 300.632 151.23 298.031 154.869 298.031C156.925 298.032 158.778 298.863 160.081 300.191Z" fill="#F9AFAB"/>
<path d="M443.532 427.676L441.347 436.366L417.512 443.525L420.939 427.676H443.532Z" fill="#FCBEB7"/>
<path d="M523.837 427.676L523.188 438.41L524.673 438.934L525.652 443.53L501.839 436.366L501.244 427.676H523.837Z" fill="#FCBEB7"/>
<path d="M399.128 446.901L418.505 438.933L417.512 443.526L441.347 436.367V442.9C441.347 445.197 440.09 447.28 438.116 448.451L436.066 454.056C435.889 454.54 435.411 454.866 434.873 454.866C434.176 454.866 433.611 454.325 433.611 453.658V450.011L417.32 454.866H400.841C398.445 454.866 396.503 453.008 396.503 450.716C396.503 449.055 397.535 447.556 399.128 446.901Z" fill="#2F3D6C"/>
<path d="M501.818 442.835L501.838 436.302L525.65 443.529L524.671 438.933L544.023 446.955C545.614 447.615 546.642 449.117 546.637 450.775C546.63 453.068 544.682 454.92 542.286 454.913L525.807 454.867L508.962 449.796L508.95 453.613C508.947 454.28 508.381 454.82 507.683 454.817C507.147 454.816 506.669 454.489 506.494 454.005L504.27 447.867C502.745 446.649 501.812 444.821 501.818 442.835Z" fill="#2F3D6C"/>
<path d="M454.624 88.4816V124.446H473.788H491.418H492.635H516.506C516.506 124.446 516.506 96.8289 516.506 80.7756C516.506 63.5071 501.978 60.5039 501.978 60.5039C501.978 60.5039 496.696 52.3906 481.326 52.3906C462.832 52.3906 450.499 63.2281 450.499 76.6056C450.499 82.749 453.11 86.7048 454.624 88.4816ZM454.936 82.5138C457.275 82.0083 463.85 76.4673 463.85 70.7846C468.997 78.9289 484.727 90.648 508.118 83.4948V83.4963C508.191 83.4863 508.264 83.4799 508.341 83.4799C513.905 83.4799 514.293 98.2833 504.929 99.1387C504.791 99.5732 504.649 99.9865 504.505 100.373V124.446H483.383V115.088C481.91 115.486 480.499 115.714 479.207 115.714C470.469 115.714 455.281 102.822 454.936 82.5138Z" fill="#311643"/>
<path d="M483.381 115.088C481.909 115.486 480.498 115.714 479.205 115.714C470.469 115.714 455.281 102.822 454.936 82.5126C457.275 82.0071 463.85 76.4661 463.85 70.7834C468.997 78.9277 484.727 90.6468 508.118 83.4936V83.4948C508.191 83.4848 508.264 83.4787 508.341 83.4787C513.905 83.4787 514.293 98.2821 504.929 99.1375C504.791 99.572 504.649 99.9853 504.505 100.371V116.565L521.048 123.96V143.554H466.074V122.263L483.383 117.219L483.381 115.088Z" fill="#FCBEB7"/>
<path d="M466.073 143.557V122.265L483.381 117.221V115.09C488.276 113.769 493.839 110.569 497.923 107.583L466.073 143.557Z" fill="#F9AFAB"/>
<path d="M494.663 99.6591C497.845 99.6591 500.425 97.1912 500.425 94.147C500.425 91.1027 497.845 88.6348 494.663 88.6348C491.48 88.6348 488.9 91.1027 488.9 94.147C488.9 97.1912 491.48 99.6591 494.663 99.6591Z" fill="#F49795"/>
<path d="M455.676 89.5711C456.407 93.2728 457.632 96.6483 459.178 99.6515C462.225 99.5083 464.649 97.0979 464.649 94.147C464.649 91.1027 462.069 88.636 458.888 88.636C457.701 88.636 456.595 88.9797 455.676 89.5711Z" fill="#F49795"/>
<path d="M457.258 85.1945C457.258 89.5014 460.921 93.0051 465.423 93.0051C469.822 93.0051 473.418 89.6593 473.581 85.4894C476.04 84.1559 478.195 85.1073 478.874 85.4809C479.032 89.6557 482.629 93.0051 487.031 93.0051C491.534 93.0051 495.196 89.5014 495.196 85.1945C495.196 80.8877 491.534 77.3837 487.031 77.3837C482.825 77.3837 479.353 80.4418 478.914 84.3552C477.848 83.8871 475.83 83.3292 473.542 84.3589C473.105 80.443 469.63 77.3837 465.423 77.3837C460.921 77.3837 457.258 80.8877 457.258 85.1945ZM479.934 85.1945C479.934 81.4505 483.118 78.406 487.032 78.406C490.945 78.406 494.13 81.4517 494.13 85.1945C494.13 88.9373 490.947 91.984 487.032 91.984C483.118 91.984 479.934 88.9373 479.934 85.1945ZM458.327 85.1945C458.327 81.4505 461.511 78.406 465.425 78.406C469.337 78.406 472.523 81.4517 472.523 85.1945C472.523 88.9373 469.339 91.984 465.425 91.984C461.511 91.984 458.327 88.9373 458.327 85.1945Z" fill="white"/>
<path d="M465.418 87.3499C466.061 87.3499 466.583 86.8506 466.583 86.2355V84.1535C466.583 83.5384 466.061 83.0391 465.418 83.0391C464.775 83.0391 464.253 83.5384 464.253 84.1535V86.2355C464.253 86.8518 464.775 87.3499 465.418 87.3499Z" fill="#311643"/>
<path d="M486.677 87.3499C487.32 87.3499 487.842 86.8506 487.842 86.2355V84.1535C487.842 83.5384 487.32 83.0391 486.677 83.0391C486.033 83.0391 485.512 83.5384 485.512 84.1535V86.2355C485.512 86.8518 486.033 87.3499 486.677 87.3499Z" fill="#311643"/>
<path d="M478.358 103.428C480.438 103.428 481.854 102.68 482.712 101.998C483.794 101.139 484.243 100.202 484.262 100.162C484.383 99.9043 484.264 99.6015 483.994 99.4857C483.726 99.3699 483.411 99.4846 483.289 99.7398C483.228 99.8668 481.75 102.829 477.459 102.355C477.164 102.322 476.9 102.523 476.866 102.803C476.832 103.083 477.042 103.337 477.336 103.369C477.693 103.41 478.034 103.428 478.358 103.428Z" fill="#311643"/>
<path d="M520.234 209.134L529.026 244.745C531.564 255.029 532.565 265.605 531.996 276.158L523.837 427.675H501.244L491.597 270.428L443.532 427.675H420.939L460.719 209.133H520.234V209.134Z" fill="#6277D7"/>
<path d="M490.339 133.923C486.327 133.923 483.118 130.228 480.955 126.485H503.833C500.345 130.218 495.565 133.923 490.339 133.923Z" fill="white"/>
<path d="M447.533 134.21C451.06 128.959 456.422 125.078 462.664 123.26L477.826 118.844C477.826 119.454 478.935 122.99 480.955 126.485C483.118 130.228 486.327 133.923 490.339 133.923C495.565 133.923 500.343 130.218 503.833 126.485C507.374 122.697 509.585 118.882 509.585 118.882L523.425 125.016C529.701 127.797 534.198 133.293 535.513 139.789L544.735 185.344H525.98L523.254 168.164L520.234 209.134H460.719L455.312 165.527L441.136 177.724L429.375 161.247L447.533 134.21Z" fill="#FE9ECC"/>
<path d="M429.375 161.247L445.889 173.634L441.134 177.724L429.375 161.247Z" fill="#FF78BA"/>
<path d="M454.286 330.048C460.259 330.048 465.101 325.416 465.101 319.703C465.101 313.99 460.259 309.359 454.286 309.359C448.314 309.359 443.472 313.99 443.472 319.703C443.472 325.416 448.314 330.048 454.286 330.048Z" fill="#4A5EA3"/>
<path d="M510.945 330.048C516.918 330.048 521.76 325.416 521.76 319.703C521.76 313.99 516.918 309.359 510.945 309.359C504.973 309.359 500.131 313.99 500.131 319.703C500.131 325.416 504.973 330.048 510.945 330.048Z" fill="#4A5EA3"/>
<path d="M364.781 118.414L384.293 112.018C386.238 111.423 388.356 111.646 390.118 112.629L397.696 116.863L441.134 177.725L435.166 182.941C430.232 187.253 422.357 185.851 419.373 180.131L390.782 125.307L383.679 126.14C382.606 126.266 381.519 126.074 380.565 125.591L378.058 124.322C376.887 123.729 375.99 122.737 375.547 121.543L375.033 120.157L365.51 121.39C364.734 121.503 363.986 121.061 363.745 120.347C363.472 119.537 363.936 118.672 364.781 118.414Z" fill="#FCBEB7"/>
<path d="M518.084 248.917L522.464 245.149L525.98 185.344H544.735L533.022 247.173L533.033 261.212C532.923 263.118 532.052 264.911 530.599 266.219L528.782 267.859C526.559 269.864 523.586 270.931 520.533 270.817L517.928 270.722C517.003 270.688 516.457 269.717 516.934 268.96L520.717 262.972L520.397 251.792L518.511 258.31C518.193 259.41 517.038 260.085 515.871 259.854V253.671C515.868 251.858 516.674 250.129 518.084 248.917Z" fill="#FCBEB7"/>
<path d="M524.341 130.827C524.341 134.438 527.401 137.366 531.177 137.366C532.405 137.366 533.555 137.056 534.551 136.516C532.941 132.382 529.981 128.846 526.11 126.438C525.011 127.598 524.341 129.137 524.341 130.827Z" fill="#FF78BA"/>
<path d="M520.234 209.134H460.719L459.878 213.756L520.61 210.659L520.234 209.134Z" fill="#4A5EA3"/>
<path d="M420.732 182.098C424.187 185.974 430.409 186.659 434.711 183.313C434.324 179.881 431.285 177.207 427.594 177.207C424.352 177.209 421.612 179.27 420.732 182.098Z" fill="#F9AFAB"/>
<g filter="url(#filter0_d_12_52)">
<ellipse cx="118.452" cy="49.8046" rx="52.0667" ry="49.8046" fill="#6277D7"/>
</g>
<g filter="url(#filter1_d_12_52)">
<path d="M113.57 20.5444H89.1642V43.8903H113.57V20.5444ZM94.0454 25.2136H108.689V39.2211H94.0454V25.2136ZM103.808 62.567H98.9267V67.2362H103.808V62.567Z" fill="#F5FBFF"/>
<path d="M113.57 53.2287H89.1642V76.5746H113.57V53.2287ZM94.0454 57.8979H108.689V71.9054H94.0454V57.8979ZM133.095 29.8828H137.977V34.552H133.095V29.8828Z" fill="#F5FBFF"/>
<path d="M123.333 20.5444H147.739V43.8903H123.333V20.5444ZM128.214 25.2136V39.2211H142.858V25.2136H128.214ZM118.452 48.5595V57.8979H123.333V62.567H118.452V67.2362H128.214V57.8979H133.095V67.2362H137.977V62.567H147.739V57.8979H133.095V48.5595H118.452ZM128.214 57.8979H123.333V53.2287H128.214V57.8979ZM147.739 67.2362H142.858V71.9054H133.095V76.5746H147.739V67.2362ZM128.214 76.5746V71.9054H118.452V76.5746H128.214Z" fill="#F5FBFF"/>
<path d="M137.977 53.2287H147.739V48.5595H137.977V53.2287Z" fill="#F5FBFF"/>
<ellipse cx="101.313" cy="32.1655" rx="2.82028" ry="2.69775" fill="#F5FBFF"/>
</g>
<defs>
<filter id="filter0_d_12_52" x="62.385" y="0" width="112.133" height="107.609" filterUnits="userSpaceOnUse" color-interpolation-filters="sRGB">
<feFlood flood-opacity="0" result="BackgroundImageFix"/>
<feColorMatrix in="SourceAlpha" type="matrix" values="0 0 0 0 0 0 0 0 0 0 0 0 0 0 0 0 0 0 127 0" result="hardAlpha"/>
<feOffset dy="4"/>
<feGaussianBlur stdDeviation="2"/>
<feComposite in2="hardAlpha" operator="out"/>
<feColorMatrix type="matrix" values="0 0 0 0 0 0 0 0 0 0 0 0 0 0 0 0 0 0 0.25 0"/>
<feBlend mode="normal" in2="BackgroundImageFix" result="effect1_dropShadow_12_52"/>
<feBlend mode="normal" in="SourceGraphic" in2="effect1_dropShadow_12_52" result="shape"/>
</filter>
<filter id="filter1_d_12_52" x="75.4017" y="11.206" width="86.1" height="82.7069" filterUnits="userSpaceOnUse" color-interpolation-filters="sRGB">
<feFlood flood-opacity="0" result="BackgroundImageFix"/>
<feColorMatrix in="SourceAlpha" type="matrix" values="0 0 0 0 0 0 0 0 0 0 0 0 0 0 0 0 0 0 127 0" result="hardAlpha"/>
<feOffset dy="4"/>
<feGaussianBlur stdDeviation="2"/>
<feComposite in2="hardAlpha" operator="out"/>
<feColorMatrix type="matrix" values="0 0 0 0 0 0 0 0 0 0 0 0 0 0 0 0 0 0 0.25 0"/>
<feBlend mode="normal" in2="BackgroundImageFix" result="effect1_dropShadow_12_52"/>
<feBlend mode="normal" in="SourceGraphic" in2="effect1_dropShadow_12_52" result="shape"/>
</filter>
</defs>
</svg>
